<svg width="681" height="358" viewBox="0 0 681 358" fill="none" xmlns="http://www.w3.org/2000/svg">
<g clip-path="url(#clip0_6368_95208)">
<path d="M399.515 147.164C401.198 144.515 409.525 142.535 417.98 144.735C417.36 147.789 416.538 150.797 415.519 153.741C412.487 152.496 409.299 151.671 406.043 151.292C401.009 150.936 397.636 150.161 399.515 147.164Z" fill="#D3B9A1" stroke="#263238" stroke-width="1.32916" stroke-linecap="round" stroke-linejoin="round"/>
<path d="M419.85 123.587C419.918 127.083 419.799 130.581 419.491 134.064C417 133.273 414.413 132.826 411.802 132.732C401.132 132.342 399.301 131.887 405.952 126.933C410.105 123.841 415.491 123.318 419.85 123.587Z" fill="#D3B9A1" stroke="#263238" stroke-width="1.32916" stroke-linecap="round" stroke-linejoin="round"/>
<path d="M337.153 68.9214C337.153 68.9214 316.485 75.0953 304.097 88.0976C291.709 101.1 286.035 111.776 287.517 118.604C288.999 125.432 294.325 127.304 299.244 125.84C304.163 124.377 309.368 109.937 309.368 109.937C309.368 109.937 321.961 102.01 334.111 99.0179C346.261 96.0254 348.352 95.7574 348.352 95.7574C348.352 95.7574 347.104 75.5338 337.153 68.9214Z" stroke="#263238" stroke-width="1.32916" stroke-linecap="round" stroke-linejoin="round"/>
<path d="M287.517 118.603C288.762 114.624 290.749 110.916 293.373 107.675" stroke="#263238" stroke-width="1.32916" stroke-linecap="round" stroke-linejoin="round"/>
<path d="M292.76 124.948C292.76 124.948 293.528 119.129 298.602 112.127" stroke="#263238" stroke-width="1.32916" stroke-linecap="round" stroke-linejoin="round"/>
<path d="M335.922 69.3131C332.592 70.4475 329.324 71.7558 326.131 73.2326C327.71 75.3063 328.998 77.5858 329.96 80.0078C333.957 89.9014 334.975 91.4981 337.412 83.5355C338.996 78.5791 337.651 73.3294 335.922 69.3131Z" fill="#D3B9A1" stroke="#263238" stroke-width="1.32916" stroke-linecap="round" stroke-linejoin="round"/>
<path d="M320.637 96.4428C322.563 93.9687 321.605 85.4551 316.702 78.2076C314.027 79.8207 311.463 81.6094 309.026 83.562C311.237 85.9851 313.098 88.7058 314.554 91.6448C316.585 96.306 318.438 99.2663 320.637 96.4428Z" fill="#D3B9A1" stroke="#263238" stroke-width="1.32916" stroke-linecap="round" stroke-linejoin="round"/>
<mask id="mask0_6368_95208" style="mask-type:luminance" maskUnits="userSpaceOnUse" x="332" y="18" width="140" height="115">
<path d="M345.567 56.2078C345.567 56.2078 335.017 63.753 333.001 68.6009C330.986 73.4488 338.893 73.7809 340.595 82.0998C342.296 90.4187 340.891 101.947 359.04 118.417C377.189 134.888 396.925 133.556 405.489 130.88C414.053 128.205 419.032 120.993 426.217 126.013C433.403 131.032 438.073 113.051 437.589 109.17C437.589 109.17 466.611 99.6559 470.575 94.566C474.539 89.4762 460.968 80.6518 441.668 73.2209C441.668 73.2209 434.846 57.9714 410.92 45.1779C386.993 32.3844 375.998 33.7579 375.998 33.7579C375.998 33.7579 347.266 16.6304 342.908 18.4851C338.549 20.3398 333.169 38.3749 345.567 56.2078Z" fill="white"/>
</mask>
<g mask="url(#mask0_6368_95208)">
<path d="M426.182 126C433.384 131.017 438.037 113.038 437.554 109.157C437.554 109.157 443.055 107.374 449.614 104.896C444.978 94.7324 439.072 86.4919 435.245 87.1973C427.013 88.7054 422.049 100.01 416.859 110.805C411.669 121.6 400.601 119.306 388.786 122.939C376.972 126.573 375.836 111.564 375.836 111.564C363.978 120.944 357.941 104.044 357.941 104.044C350.965 94.0599 342.506 72.7866 350.678 68.8805C358.85 64.9743 364.315 59.6128 362.76 50.073C361.205 40.5331 342.262 18.8468 342.262 18.8468C338.023 21.8723 333.636 39.1786 345.525 56.2813C345.525 56.2813 334.975 63.8266 332.959 68.6744C330.944 73.5223 338.851 73.8544 340.553 82.1733C342.254 90.4922 340.849 102.02 358.998 118.491C377.147 134.962 396.883 133.629 405.447 130.954C414.011 128.278 418.987 120.973 426.182 126Z" fill="#D3B9A1"/>
<path opacity="0.5" d="M426.182 126C433.384 131.017 438.037 113.038 437.554 109.157C437.554 109.157 443.055 107.374 449.614 104.896C444.978 94.7324 439.072 86.4919 435.245 87.1973C427.013 88.7054 422.049 100.01 416.859 110.805C411.669 121.6 400.601 119.306 388.786 122.939C376.972 126.573 375.836 111.564 375.836 111.564C363.978 120.944 357.941 104.044 357.941 104.044C350.965 94.0599 342.506 72.7866 350.678 68.8805C358.85 64.9743 364.315 59.6128 362.76 50.073C361.205 40.5331 342.262 18.8468 342.262 18.8468C338.023 21.8723 333.636 39.1786 345.525 56.2813C345.525 56.2813 334.975 63.8266 332.959 68.6744C330.944 73.5223 338.851 73.8544 340.553 82.1733C342.254 90.4922 340.849 102.02 358.998 118.491C377.147 134.962 396.883 133.629 405.447 130.954C414.011 128.278 418.987 120.973 426.182 126Z" fill="white"/>
<path d="M396.031 106.038C394.51 108.555 387.456 107.051 380.294 102.702C373.133 98.3539 368.549 92.7812 370.106 90.2165C371.664 87.6519 378.674 89.2127 385.845 93.5686C393.015 97.9244 397.553 103.537 396.031 106.038Z" fill="#D3B9A1"/>
<path opacity="0.5" d="M396.031 106.038C394.51 108.555 387.456 107.051 380.294 102.702C373.133 98.3539 368.549 92.7812 370.106 90.2165C371.664 87.6519 378.674 89.2127 385.845 93.5686C393.015 97.9244 397.553 103.537 396.031 106.038Z" fill="white"/>
</g>
<path d="M382.137 183.041C382.137 183.041 387.365 180.361 392.233 173.214" stroke="#263238" stroke-width="1.32916" stroke-linecap="round" stroke-linejoin="round"/>
<path d="M345.567 56.2077C345.567 56.2077 335.016 63.7529 333.001 68.6008C330.986 73.4487 338.892 73.7808 340.594 82.0997C342.296 90.4186 340.891 101.947 359.04 118.417C377.188 134.888 396.924 133.555 405.488 130.88C414.052 128.205 419.032 120.993 426.217 126.012C433.402 131.032 438.072 113.051 437.589 109.17C437.589 109.17 466.61 99.6557 470.574 94.5659C474.538 89.4761 460.968 80.6516 441.667 73.2208C441.667 73.2208 434.846 57.9713 410.919 45.1778C386.993 32.3843 375.997 33.7577 375.997 33.7577C375.997 33.7577 347.265 16.6303 342.907 18.485C338.549 20.3397 333.169 38.3748 345.567 56.2077Z" stroke="#263238" stroke-width="1.32916" stroke-miterlimit="10"/>
<path d="M342.303 18.7734C338.065 21.7988 333.678 39.1051 345.567 56.2078C345.567 56.2078 358.458 64.3661 361.963 51.622C365.233 39.726 348.11 22.7953 342.303 18.7734Z" fill="#D3B9A1" stroke="#263238" stroke-width="1.32916" stroke-miterlimit="10"/>
<path d="M410.848 45.1527C409.442 44.406 408.075 43.7056 406.755 43.042C401.217 54.051 391.955 72.3548 394.732 74.5179C397.51 76.681 413.197 60.9234 421.7 51.875C418.233 49.4013 414.608 47.1557 410.848 45.1527Z" fill="#D3B9A1" stroke="#263238" stroke-width="1.32916" stroke-miterlimit="10"/>
<path d="M381.899 59.972C386.113 60.5236 395.629 47.4087 400.564 40.117C397.004 38.5343 393.352 37.1646 389.629 36.0151C385.625 43.3192 377.397 59.3792 381.899 59.972Z" fill="#D3B9A1" stroke="#263238" stroke-width="1.32916" stroke-miterlimit="10"/>
<path d="M354.679 88.4044L357.658 95.1425" stroke="#263238" stroke-width="1.32916" stroke-miterlimit="10" stroke-linecap="round"/>
<path d="M354.99 96.0785L350.218 91.8707" stroke="#263238" stroke-width="1.32916" stroke-miterlimit="10" stroke-linecap="round"/>
<path d="M353.135 99.0361L348.513 96.9713" stroke="#263238" stroke-width="1.32916" stroke-miterlimit="10" stroke-linecap="round"/>
<path d="M395.185 118.71L401.607 119.162" stroke="#263238" stroke-width="1.32916" stroke-miterlimit="10" stroke-linecap="round"/>
<path d="M395.433 121.912L399.408 123.163" stroke="#263238" stroke-width="1.32916" stroke-miterlimit="10" stroke-linecap="round"/>
<path d="M395.385 125.022L400.342 128.137" stroke="#263238" stroke-width="1.32916" stroke-miterlimit="10" stroke-linecap="round"/>
<path d="M680.91 307.59C680.91 307.73 528.47 307.85 340.47 307.85C152.47 307.85 0 307.73 0 307.59C0 307.45 152.41 307.33 340.47 307.33C528.53 307.33 680.91 307.45 680.91 307.59Z" fill="#263238"/>
<path d="M111.93 289.341C101.609 313.915 119.916 338.981 139.271 353.279L139.954 353.774C140.882 354.492 141.943 355.042 143.072 355.391C144.202 355.74 145.378 355.881 146.529 355.804C147.68 355.728 148.784 355.437 149.773 354.947C150.762 354.458 151.617 353.781 152.286 352.957C152.956 352.133 153.426 351.178 153.669 350.15C153.911 349.122 153.922 348.043 153.699 346.975C153.477 345.908 153.026 344.875 152.374 343.938C151.721 343.001 150.881 342.18 149.903 341.524L149.4 341.156C134.667 330.28 120.472 311.552 128.864 294.596C130.366 291.375 132.616 288.54 135.467 286.274C138.318 284.008 141.706 282.361 145.412 281.441C161.734 277.063 190.298 284.034 203.403 290.654C204.231 291.108 205.137 291.411 206.066 291.543C206.995 291.676 207.928 291.637 208.809 291.427C209.69 291.218 210.501 290.843 211.194 290.325C211.886 289.806 212.447 289.156 212.841 288.411C213.235 287.667 213.455 286.844 213.488 285.992C213.52 285.14 213.365 284.276 213.031 283.452C212.698 282.628 212.192 281.861 211.545 281.196C210.897 280.531 210.122 279.983 209.264 279.584C194.698 272.167 161.781 260.056 139.318 266.09C133.45 267.584 128.084 270.212 123.559 273.807C119.034 277.403 115.446 281.889 113.023 286.981C112.623 287.761 112.26 288.557 111.93 289.341Z" fill="white"/>
<mask id="mask1_6368_95208" style="mask-type:luminance" maskUnits="userSpaceOnUse" x="108" y="264" width="106" height="92">
<path d="M111.93 289.341C101.609 313.915 119.916 338.981 139.271 353.279L139.954 353.774C140.882 354.492 141.943 355.042 143.072 355.391C144.202 355.74 145.378 355.881 146.529 355.804C147.68 355.728 148.784 355.437 149.773 354.947C150.762 354.458 151.617 353.781 152.286 352.957C152.956 352.133 153.426 351.178 153.669 350.15C153.911 349.122 153.922 348.043 153.699 346.975C153.477 345.908 153.026 344.875 152.374 343.938C151.721 343.001 150.881 342.18 149.903 341.524L149.4 341.156C134.667 330.28 120.472 311.552 128.864 294.596C130.366 291.375 132.616 288.54 135.467 286.274C138.318 284.008 141.706 282.361 145.412 281.441C161.734 277.063 190.298 284.034 203.403 290.654C204.231 291.108 205.137 291.411 206.066 291.543C206.995 291.676 207.928 291.637 208.809 291.427C209.69 291.218 210.501 290.843 211.194 290.325C211.886 289.806 212.447 289.156 212.841 288.411C213.235 287.667 213.455 286.844 213.488 285.992C213.52 285.14 213.365 284.276 213.031 283.452C212.698 282.628 212.192 281.861 211.545 281.196C210.897 280.531 210.122 279.983 209.264 279.584C194.698 272.167 161.781 260.056 139.318 266.09C133.45 267.584 128.084 270.212 123.559 273.807C119.034 277.403 115.446 281.889 113.023 286.981C112.623 287.761 112.26 288.557 111.93 289.341Z" fill="white"/>
</mask>
<g mask="url(#mask1_6368_95208)">
<path d="M212.611 288.301C211.831 289.768 210.423 290.839 208.697 291.281C206.97 291.722 205.066 291.497 203.403 290.654C197.007 287.423 186.936 284.115 176.352 282.06C177.709 279.216 178.507 276.139 178.714 272.96C169.101 269.696 158.919 268.85 149.27 270.516C128.026 274.204 115.926 288.032 112.683 301.384C111.226 307.357 111.833 315.157 112.954 321.979C108 311.281 107.624 299.568 111.906 289.33C112.235 288.546 112.573 287.74 112.986 286.966C115.409 281.873 118.996 277.387 123.522 273.792C128.047 270.196 133.413 267.568 139.281 266.074C161.744 260.041 194.643 272.196 209.227 279.568C210.058 279.981 210.805 280.535 211.426 281.199C212.047 281.863 212.528 282.622 212.843 283.434C213.158 284.247 213.299 285.095 213.259 285.93C213.219 286.765 212.999 287.571 212.611 288.301Z" fill="#D3B9A1"/>
<path opacity="0.5" d="M212.611 288.301C211.831 289.768 210.423 290.839 208.697 291.281C206.97 291.722 205.066 291.497 203.403 290.654C197.007 287.423 186.936 284.115 176.352 282.06C177.709 279.216 178.507 276.139 178.714 272.96C169.101 269.696 158.919 268.85 149.27 270.516C128.026 274.204 115.926 288.032 112.683 301.384C111.226 307.357 111.833 315.157 112.954 321.979C108 311.281 107.624 299.568 111.906 289.33C112.235 288.546 112.573 287.74 112.986 286.966C115.409 281.873 118.996 277.387 123.522 273.792C128.047 270.196 133.413 267.568 139.281 266.074C161.744 260.041 194.643 272.196 209.227 279.568C210.058 279.981 210.805 280.535 211.426 281.199C212.047 281.863 212.528 282.622 212.843 283.434C213.158 284.247 213.299 285.095 213.259 285.93C213.219 286.765 212.999 287.571 212.611 288.301Z" fill="white"/>
</g>
<path d="M111.93 289.341C101.609 313.915 119.916 338.981 139.271 353.279L139.954 353.774C140.882 354.492 141.943 355.042 143.072 355.391C144.202 355.74 145.378 355.881 146.529 355.804C147.68 355.728 148.784 355.437 149.773 354.947C150.762 354.458 151.617 353.781 152.286 352.957C152.956 352.133 153.426 351.178 153.669 350.15C153.911 349.122 153.922 348.043 153.699 346.975C153.477 345.908 153.026 344.875 152.374 343.938C151.721 343.001 150.881 342.18 149.903 341.524L149.4 341.156C134.667 330.28 120.472 311.552 128.864 294.596C130.366 291.375 132.616 288.54 135.467 286.274C138.318 284.008 141.706 282.361 145.412 281.441C161.734 277.063 190.298 284.034 203.403 290.654C204.231 291.108 205.137 291.411 206.066 291.543C206.995 291.676 207.928 291.637 208.809 291.427C209.69 291.218 210.501 290.843 211.194 290.325C211.886 289.806 212.447 289.156 212.841 288.411C213.235 287.667 213.455 286.844 213.488 285.992C213.52 285.14 213.365 284.276 213.031 283.452C212.698 282.628 212.192 281.861 211.545 281.196C210.897 280.531 210.122 279.983 209.264 279.584C194.698 272.167 161.781 260.056 139.318 266.09C133.45 267.584 128.084 270.212 123.559 273.807C119.034 277.403 115.446 281.889 113.023 286.981C112.623 287.761 112.26 288.557 111.93 289.341Z" stroke="#263238" stroke-width="1.32916" stroke-linecap="round" stroke-linejoin="round"/>
<path d="M122.768 310.568C126.055 311.26 118.584 315.733 111.877 319.293C110.814 316.488 110.03 313.619 109.534 310.724C113.882 310.278 119.603 309.901 122.768 310.568Z" fill="#D3B9A1" stroke="#263238" stroke-width="1.32916" stroke-linecap="round" stroke-linejoin="round"/>
<path d="M111.93 289.341C112.259 288.557 112.598 287.751 113.011 286.976C114.144 284.693 115.492 282.518 117.041 280.474C120.229 285.397 124.375 292.074 124.316 293.465C124.258 295.064 115.533 294.529 110.295 294.069C110.736 292.457 111.282 290.878 111.93 289.341Z" fill="#D3B9A1" stroke="#263238" stroke-width="1.32916" stroke-linecap="round" stroke-linejoin="round"/>
<path d="M149.4 341.157L149.903 341.524C150.881 342.18 151.721 343.002 152.373 343.938C153.026 344.875 153.477 345.908 153.699 346.975C153.922 348.043 153.911 349.123 153.668 350.15C153.425 351.178 152.955 352.133 152.286 352.957C151.617 353.781 150.762 354.458 149.772 354.947C148.783 355.437 147.68 355.728 146.529 355.805C145.378 355.881 144.202 355.74 143.072 355.391C141.943 355.043 140.882 354.492 139.954 353.774L139.271 353.279C132.474 348.259 126.438 342.398 121.362 335.887L133.921 325.694C138.178 331.538 143.41 336.764 149.4 341.157Z" fill="#D3B9A1" stroke="#263238" stroke-width="1.32916" stroke-linecap="round" stroke-linejoin="round"/>
<path d="M139.318 266.09C141.057 265.632 142.835 265.276 144.641 265.026C144.489 269.872 144.074 277.048 142.864 279.268C141.424 281.897 133.063 273.995 129.191 270.109C132.35 268.394 135.749 267.045 139.318 266.09Z" fill="#D3B9A1" stroke="#263238" stroke-width="1.32916" stroke-linecap="round" stroke-linejoin="round"/>
<path d="M165.937 276.997C164.759 277.021 162.608 269.767 161.296 264.93C165.647 265.399 169.984 266.127 174.279 267.111C171.432 271.11 167.086 276.973 165.937 276.997Z" fill="#D3B9A1" stroke="#263238" stroke-width="1.32916" stroke-linecap="round" stroke-linejoin="round"/>
<path d="M189.824 271.536C193.464 272.779 196.89 274.075 199.998 275.367C196.057 278.18 190.914 281.318 188.779 280.422C186.644 279.525 188.155 275.198 189.824 271.536Z" fill="#D3B9A1" stroke="#263238" stroke-width="1.32916" stroke-linecap="round" stroke-linejoin="round"/>
<path d="M508.173 41H169.23C162.069 41 156.264 46.8047 156.264 53.9651V288.654C156.264 295.814 162.069 301.619 169.23 301.619H508.173C515.334 301.619 521.138 295.814 521.138 288.654V53.9651C521.138 46.8047 515.334 41 508.173 41Z" fill="#455A64"/>
<path d="M142 284.783H537.316V291.751C537.316 295.952 535.647 299.98 532.676 302.951C529.706 305.921 525.677 307.59 521.476 307.59H157.839C153.638 307.59 149.61 305.921 146.639 302.951C143.669 299.98 142 295.952 142 291.751V284.783Z" fill="#455A64"/>
<path d="M510.326 51.3579H166.062V271.444H510.326V51.3579Z" fill="#263238"/>
<path d="M302.733 282.345L307.636 290.772H376.662L381.218 282.345H302.733Z" fill="#263238"/>
<path d="M501.028 58.8059H176.055C174.448 58.8059 173.145 60.1087 173.145 61.7157V267.823C173.145 269.43 174.448 270.732 176.055 270.732H501.028C502.635 270.732 503.937 269.43 503.937 267.823V61.7157C503.937 60.1087 502.635 58.8059 501.028 58.8059Z" fill="#EBEBEB"/>
<path d="M503.59 271.044H172.798L173.145 74.6453H503.59V271.044Z" fill="#FAFAFA"/>
<path d="M200.944 66.9925C200.918 67.5246 200.736 68.0373 200.421 68.4672C200.107 68.8971 199.673 69.2253 199.174 69.411C198.674 69.5968 198.132 69.6321 197.613 69.5124C197.093 69.3928 196.621 69.1234 196.253 68.7379C195.886 68.3523 195.639 67.8673 195.545 67.3431C195.45 66.8188 195.511 66.2783 195.72 65.7885C195.93 65.2987 196.278 64.8811 196.723 64.5873C197.167 64.2936 197.688 64.1367 198.221 64.1361C198.96 64.1548 199.662 64.4659 200.173 65.0014C200.683 65.5369 200.961 66.2529 200.944 66.9925Z" fill="#263238"/>
<path d="M184.428 66.9925C184.402 67.5246 184.22 68.0373 183.906 68.4672C183.591 68.8971 183.157 69.2253 182.658 69.411C182.159 69.5968 181.616 69.6321 181.097 69.5124C180.578 69.3928 180.105 69.1234 179.737 68.7379C179.37 68.3523 179.123 67.8673 179.029 67.3431C178.934 66.8188 178.995 66.2783 179.205 65.7885C179.414 65.2987 179.763 64.8811 180.207 64.5873C180.651 64.2936 181.172 64.1367 181.705 64.1361C182.445 64.1548 183.147 64.4659 183.657 65.0014C184.167 65.5369 184.445 66.2529 184.428 66.9925Z" fill="#263238"/>
<path d="M192.917 66.9925C192.891 67.5246 192.709 68.0373 192.395 68.4672C192.08 68.8971 191.646 69.2253 191.147 69.411C190.648 69.5968 190.105 69.6321 189.586 69.5124C189.067 69.3928 188.594 69.1234 188.227 68.7379C187.859 68.3523 187.613 67.8673 187.518 67.3431C187.423 66.8188 187.484 66.2783 187.694 65.7885C187.903 65.2987 188.252 64.8811 188.696 64.5873C189.141 64.2936 189.662 64.1367 190.194 64.1361C190.934 64.1548 191.636 64.4659 192.146 65.0014C192.657 65.5369 192.934 66.2529 192.917 66.9925Z" fill="#263238"/>
<path d="M518.006 282.345C518.006 282.487 437.03 282.594 337.144 282.594C237.258 282.594 156.264 282.487 156.264 282.345C156.264 282.203 237.241 282.087 337.144 282.087C437.047 282.087 518.006 282.203 518.006 282.345Z" fill="#263238"/>
<path d="M303.009 112.295C308.388 109.048 314.175 106.535 320.219 104.82L323.778 87.7794L352.556 87.2722L356.703 104.179C362.801 105.685 368.672 107.995 374.162 111.049L388.711 101.519L409.417 121.514L400.412 136.401C403.66 141.781 406.174 147.572 407.887 153.619L424.919 157.179L425.426 185.957L408.519 190.103C407.009 196.185 404.696 202.038 401.64 207.509L411.179 222.058L391.184 242.765L376.315 233.75C370.934 236.998 365.144 239.512 359.097 241.225L355.537 258.266L326.75 258.764L322.613 241.857C316.53 240.367 310.674 238.071 305.198 235.032L290.649 244.571L269.942 224.576L278.957 209.707C275.706 204.326 273.189 198.535 271.473 192.488L254.441 188.929L253.934 160.151L270.841 156.004C272.346 149.905 274.656 144.034 277.711 138.545L268.181 123.996L288.175 103.29L303.009 112.295ZM318.35 150.638C314.109 155.032 311.265 160.585 310.18 166.594C309.094 172.604 309.814 178.8 312.25 184.4C314.686 190 318.727 194.752 323.864 198.055C329 201.358 335.001 203.064 341.106 202.957C347.212 202.85 353.149 200.935 358.167 197.454C363.184 193.973 367.057 189.082 369.295 183.4C371.533 177.718 372.036 171.5 370.74 165.533C369.444 159.565 366.408 154.115 362.015 149.873C359.096 147.058 355.651 144.845 351.877 143.361C348.103 141.877 344.073 141.151 340.019 141.225C335.964 141.298 331.963 142.17 328.245 143.789C324.528 145.409 321.165 147.746 318.35 150.665V150.638Z" fill="#E0E0E0"/>
<path d="M417.987 123.302C418.381 121.173 419.055 119.106 419.989 117.153L416.43 112.348L422.872 104.802L428.211 107.596C429.992 106.369 431.928 105.385 433.969 104.669L434.859 98.7334L444.745 97.9592L446.524 103.681C448.655 104.074 450.722 104.751 452.673 105.692L457.479 102.133L465.024 108.584L462.23 113.923C463.462 115.706 464.45 117.645 465.167 119.689L471.093 120.579L471.867 130.474L466.146 132.254C465.755 134.385 465.079 136.453 464.135 138.403L467.694 143.217L461.251 150.754L455.912 147.96C454.13 149.192 452.191 150.179 450.146 150.896L449.256 156.832L439.37 157.606L437.59 151.875C435.461 151.485 433.393 150.812 431.441 149.873L426.627 153.432L419.099 146.91L421.893 141.571C420.663 139.787 419.676 137.848 418.957 135.805L413.031 134.915L412.256 125.02L417.978 123.24L417.987 123.302ZM431.397 126.301C431.186 128.526 431.678 130.762 432.805 132.692C433.932 134.623 435.636 136.151 437.678 137.062C439.719 137.972 441.995 138.219 444.184 137.768C446.374 137.316 448.366 136.189 449.881 134.545C451.395 132.901 452.356 130.823 452.627 128.605C452.898 126.386 452.466 124.138 451.391 122.177C450.317 120.217 448.655 118.644 446.638 117.678C444.622 116.713 442.354 116.405 440.153 116.797C437.856 117.207 435.756 118.358 434.174 120.074C432.593 121.791 431.617 123.978 431.397 126.301Z" fill="#E0E0E0"/>
<path d="M201.282 222.636C201.354 220.08 201.77 217.544 202.519 215.099L197.473 210.178L203.649 200.23L210.34 202.543C212.209 200.789 214.304 199.293 216.569 198.094L216.516 191.02L227.924 188.35L231.012 194.713C233.568 194.784 236.103 195.2 238.549 195.949L243.523 190.904L253.471 197.08L251.158 203.771C252.912 205.64 254.408 207.735 255.607 210L262.681 209.947L265.351 221.346L258.98 224.416C258.9 226.972 258.481 229.507 257.734 231.953L262.779 236.918L256.604 246.876L249.912 244.562C248.045 246.318 245.95 247.814 243.683 249.011L243.737 256.085L232.338 258.755L229.241 252.393C226.691 252.304 224.165 251.873 221.731 251.111L216.765 256.157L206.808 249.981L209.121 243.289C207.368 241.421 205.871 239.326 204.672 237.061L197.553 237.114L194.884 225.715L201.246 222.618L201.282 222.636ZM217.771 225.84C218.342 228.256 219.617 230.45 221.435 232.142C223.252 233.835 225.53 234.951 227.982 235.349C230.433 235.748 232.948 235.411 235.208 234.381C237.468 233.352 239.372 231.675 240.68 229.564C241.987 227.453 242.64 225.001 242.555 222.519C242.471 220.037 241.652 217.636 240.204 215.618C238.755 213.601 236.741 212.058 234.416 211.185C232.091 210.312 229.559 210.147 227.141 210.712C225.528 211.088 224.006 211.779 222.661 212.745C221.317 213.711 220.176 214.933 219.305 216.341C218.435 217.749 217.851 219.316 217.587 220.951C217.324 222.585 217.386 224.256 217.771 225.866V225.84Z" fill="#E0E0E0"/>
<path d="M221.757 127.582C222.048 125.975 222.557 124.415 223.27 122.946L220.601 119.316L225.459 113.63L229.463 115.738C230.807 114.812 232.267 114.067 233.806 113.523L234.464 109.074L241.921 108.486L243.256 112.802C244.861 113.101 246.42 113.609 247.892 114.315L251.523 111.645L257.2 116.504L255.1 120.508C256.028 121.85 256.77 123.31 257.307 124.851L261.756 125.5L262.343 132.957L258.036 134.256C257.742 135.861 257.236 137.42 256.533 138.892L259.202 142.514L254.344 148.2L250.339 146.091C248.998 147.022 247.537 147.767 245.997 148.307L245.347 152.756L237.89 153.335L236.547 149.019C234.94 148.727 233.38 148.218 231.911 147.506L228.289 150.176L222.603 145.317L224.703 141.313C223.775 139.971 223.033 138.51 222.496 136.97L218.047 136.312L217.468 128.855L221.784 127.52L221.757 127.582ZM231.857 131.204C231.983 132.782 232.574 134.287 233.554 135.529C234.535 136.771 235.861 137.695 237.367 138.184C238.872 138.673 240.488 138.705 242.012 138.276C243.535 137.847 244.897 136.976 245.926 135.773C246.955 134.571 247.604 133.09 247.792 131.519C247.98 129.947 247.699 128.355 246.983 126.944C246.267 125.533 245.149 124.365 243.769 123.588C242.39 122.812 240.812 122.462 239.234 122.581C238.183 122.661 237.158 122.948 236.217 123.425C235.277 123.902 234.44 124.56 233.755 125.361C233.07 126.162 232.549 127.09 232.223 128.093C231.898 129.096 231.773 130.153 231.857 131.204Z" fill="#EBEBEB"/>
<path d="M418.36 207.891C418.618 206.511 419.054 205.171 419.659 203.905L417.337 200.79L421.51 195.905L424.954 197.685C426.106 196.886 427.36 196.246 428.683 195.78L429.243 191.936L435.65 191.438L436.798 195.149C438.179 195.402 439.52 195.839 440.784 196.448L443.899 194.125L448.784 198.299L447.005 201.733C447.803 202.889 448.444 204.146 448.909 205.471L452.753 206.031L453.251 212.438L449.541 213.586C449.287 214.967 448.85 216.308 448.241 217.573L450.564 220.687L446.391 225.564L442.956 223.784C441.798 224.579 440.542 225.219 439.218 225.688L438.658 229.523L432.251 230.022L431.103 226.32C429.723 226.063 428.383 225.626 427.116 225.021L424.002 227.343L419.099 223.17L420.879 219.735C420.08 218.583 419.44 217.329 418.974 216.007L415.139 215.446L414.632 209.039L418.342 207.891H418.36ZM427.036 210.997C427.142 212.359 427.649 213.658 428.494 214.732C429.339 215.805 430.483 216.603 431.782 217.025C433.081 217.447 434.477 217.473 435.791 217.101C437.105 216.729 438.279 215.975 439.164 214.935C440.049 213.895 440.606 212.615 440.763 211.258C440.92 209.901 440.67 208.529 440.046 207.314C439.422 206.099 438.451 205.097 437.256 204.434C436.062 203.772 434.698 203.479 433.336 203.593C431.521 203.743 429.838 204.606 428.657 205.994C427.476 207.381 426.894 209.18 427.036 210.997Z" fill="#EBEBEB"/>
<path d="M339.662 217.546H295.41C292.809 217.54 290.255 216.851 288.004 215.548C285.753 214.245 283.883 212.374 282.581 210.122C281.279 207.87 280.592 205.316 280.586 202.715C280.581 200.114 281.259 197.557 282.552 195.3L304.691 156.956L326.822 118.613C328.127 116.357 330.003 114.484 332.26 113.182C334.518 111.88 337.078 111.194 339.685 111.194C342.291 111.194 344.851 111.88 347.109 113.182C349.367 114.484 351.242 116.357 352.547 118.613L374.687 156.956L396.826 195.3C398.119 197.558 398.797 200.115 398.792 202.717C398.786 205.319 398.098 207.874 396.795 210.126C395.492 212.378 393.621 214.249 391.368 215.551C389.116 216.853 386.561 217.541 383.959 217.546H339.662Z" fill="#FC6767"/>
<path d="M387.323 199.696C387.323 199.696 387.438 199.918 387.661 200.381C388.041 201.308 388.186 202.314 388.083 203.311C387.981 204.308 387.634 205.263 387.073 206.094C386.633 206.75 386.068 207.312 385.409 207.749C384.644 208.236 383.769 208.524 382.864 208.585C375.318 208.665 364.427 208.648 350.954 208.683L303.632 208.737H296.869C295.663 208.724 294.491 208.337 293.514 207.629C292.537 206.921 291.803 205.928 291.415 204.786C291.002 203.645 290.925 202.41 291.192 201.226C291.263 200.933 291.361 200.639 291.459 200.336C291.557 200.034 291.717 199.776 291.851 199.509L292.74 197.952C293.879 195.861 295.036 193.761 296.193 191.634L310.537 165.303L324.971 138.99C327.29 134.737 329.574 130.563 331.823 126.47C332.392 125.456 332.917 124.432 333.522 123.427C334.124 122.4 334.982 121.547 336.014 120.953C337.025 120.374 338.159 120.044 339.323 119.992C340.487 119.939 341.646 120.165 342.706 120.65C343.756 121.126 344.673 121.853 345.375 122.768C345.983 123.691 346.533 124.651 347.021 125.643C348.062 127.547 349.095 129.424 350.1 131.275C352.129 134.977 354.09 138.569 355.982 142.051C359.782 149.001 363.314 155.479 366.536 161.388C372.978 173.214 378.184 182.789 381.788 189.418L385.917 197.044C386.379 197.934 386.735 198.575 386.976 199.037C387.216 199.5 387.331 199.722 387.331 199.722C387.331 199.722 387.189 199.5 386.94 199.055L385.837 197.089L381.628 189.498C377.997 182.887 372.729 173.347 366.251 161.548L355.653 142.229L349.744 131.471C348.73 129.62 347.706 127.743 346.656 125.838C346.167 124.877 345.623 123.944 345.028 123.044C344.371 122.19 343.516 121.509 342.536 121.06C341.54 120.602 340.448 120.389 339.352 120.439C338.256 120.488 337.188 120.799 336.236 121.345C335.272 121.909 334.469 122.712 333.905 123.676C333.318 124.646 332.784 125.687 332.223 126.701L325.371 139.222C320.726 147.729 315.903 156.529 310.973 165.552L296.567 191.865C295.401 193.992 294.253 196.101 293.105 198.183C292.48 199.164 291.986 200.223 291.637 201.333C291.383 202.442 291.454 203.601 291.842 204.67C292.193 205.73 292.868 206.653 293.772 207.309C294.675 207.965 295.762 208.321 296.878 208.327H303.641L350.963 208.372L382.864 208.416C383.739 208.365 384.586 208.096 385.329 207.633C385.978 207.212 386.537 206.668 386.976 206.032C387.661 205.024 388.027 203.833 388.026 202.615C388.015 201.601 387.775 200.603 387.323 199.696Z" fill="#263238"/>
<path d="M332.49 191.491C332.49 187.567 335.622 184.639 340.08 184.639C344.538 184.639 347.599 187.567 347.599 191.491C347.599 195.416 344.538 198.477 340.08 198.477C335.622 198.477 332.49 195.362 332.49 191.491ZM332.561 151.297H347.599L345.072 180.911H335.026L332.561 151.297Z" fill="white"/>
<path d="M341.78 114.181C340.87 113.874 339.926 113.676 338.968 113.594C336.641 113.544 334.37 114.305 332.543 115.747C330.76 117.234 329.324 119.093 328.334 121.193C327.525 122.795 327.142 123.863 327.071 123.818C327.095 123.555 327.158 123.297 327.258 123.053C327.48 122.371 327.742 121.703 328.041 121.051C328.982 118.846 330.437 116.9 332.285 115.374C334.189 113.863 336.587 113.114 339.013 113.274C339.739 113.328 340.452 113.502 341.122 113.79C341.558 113.994 341.798 114.154 341.78 114.181Z" fill="white"/>
<path d="M323.271 130.448C323.454 129.68 323.783 128.955 324.241 128.312C324.891 127.218 325.505 126.381 325.62 126.443C325.432 127.2 325.1 127.913 324.641 128.543C324.311 129.26 323.846 129.907 323.271 130.448Z" fill="white"/>
</g>
<defs>
<clipPath id="clip0_6368_95208">
<rect width="681" height="358" fill="white"/>
</clipPath>
</defs>
</svg>
