<svg width="482" height="449" viewBox="0 0 482 449" fill="none" xmlns="http://www.w3.org/2000/svg">
<path d="M392.757 26.709L420.084 26.709V15.1707L392.757 15.1707V26.709Z" stroke="#ECEEF2" stroke-width="0.775033" stroke-miterlimit="10"/>
<path d="M408.01 12.1599L435.337 12.1599V0.621617L408.01 0.621617V12.1599Z" stroke="#ECEEF2" stroke-width="0.775033" stroke-miterlimit="10"/>
<path d="M220 140.267H247.328V128.729H220V140.267Z" stroke="#ECEEF2" stroke-width="0.775033" stroke-miterlimit="10"/>
<path d="M235.243 125.718H262.57V114.179H235.243V125.718Z" stroke="#ECEEF2" stroke-width="0.775033" stroke-miterlimit="10"/>
<path d="M250.424 140.267H277.751V128.729H250.424V140.267Z" stroke="#ECEEF2" stroke-width="0.775033" stroke-miterlimit="10"/>
<path d="M4.66306 12.1599L31.9904 12.1599V0.621617L4.66306 0.621617V12.1599Z" stroke="#ECEEF2" stroke-width="0.775033" stroke-miterlimit="10"/>
<path d="M19.9161 283.47H47.2434V271.931H19.9161V283.47Z" stroke="#ECEEF2" stroke-width="0.775033" stroke-miterlimit="10"/>
<path d="M4.66306 268.921H31.9904V257.382H4.66306V268.921Z" stroke="#ECEEF2" stroke-width="0.775033" stroke-miterlimit="10"/>
<path d="M392.757 283.47H420.084V271.931H392.757V283.47Z" stroke="#ECEEF2" stroke-width="0.775033" stroke-miterlimit="10"/>
<path d="M177.503 387.098V257.527L205.088 219.901V149.444" stroke="#ECEEF2" stroke-width="1.03338" stroke-miterlimit="10"/>
<path d="M202.642 147.041C202.642 147.527 202.786 148.002 203.057 148.406C203.327 148.81 203.711 149.124 204.161 149.31C204.61 149.495 205.104 149.543 205.581 149.448C206.058 149.352 206.495 149.117 206.839 148.773C207.182 148.429 207.415 147.991 207.508 147.514C207.602 147.037 207.552 146.543 207.364 146.095C207.177 145.647 206.86 145.264 206.455 144.996C206.05 144.728 205.574 144.585 205.088 144.587C204.766 144.587 204.447 144.651 204.149 144.774C203.852 144.898 203.582 145.079 203.355 145.307C203.127 145.535 202.948 145.805 202.825 146.103C202.703 146.401 202.641 146.72 202.642 147.041Z" stroke="#ECEEF2" stroke-width="1.03338" stroke-miterlimit="10"/>
<path d="M184.613 387.098V262.074L212.198 224.448V175.222" stroke="#ECEEF2" stroke-width="1.03338" stroke-miterlimit="10"/>
<path d="M209.742 172.809C209.74 173.295 209.882 173.771 210.151 174.176C210.42 174.58 210.803 174.897 211.251 175.084C211.7 175.271 212.194 175.321 212.671 175.228C213.148 175.134 213.587 174.901 213.931 174.559C214.276 174.216 214.511 173.779 214.606 173.302C214.702 172.826 214.654 172.332 214.468 171.883C214.283 171.434 213.968 171.05 213.564 170.78C213.16 170.51 212.684 170.366 212.198 170.366C211.549 170.366 210.925 170.623 210.465 171.081C210.005 171.539 209.745 172.16 209.742 172.809Z" stroke="#ECEEF2" stroke-width="1.03338" stroke-miterlimit="10"/>
<path d="M170.66 387.098V215.508" stroke="#ECEEF2" stroke-width="1.03338" stroke-miterlimit="10"/>
<path d="M168.204 213.054C168.202 213.54 168.345 214.015 168.613 214.42C168.882 214.825 169.265 215.141 169.713 215.329C170.162 215.516 170.656 215.566 171.133 215.473C171.61 215.379 172.049 215.146 172.393 214.803C172.738 214.461 172.973 214.023 173.069 213.547C173.164 213.071 173.116 212.577 172.931 212.128C172.745 211.679 172.43 211.295 172.026 211.025C171.622 210.755 171.147 210.61 170.66 210.61C170.011 210.61 169.388 210.867 168.927 211.325C168.467 211.783 168.207 212.405 168.204 213.054Z" stroke="#ECEEF2" stroke-width="1.03338" stroke-miterlimit="10"/>
<path d="M164.066 387.098V299.885L145.345 264.6V201.32" stroke="#ECEEF2" stroke-width="1.03338" stroke-miterlimit="10"/>
<path d="M142.889 198.876C142.889 199.361 143.033 199.836 143.303 200.24C143.573 200.643 143.957 200.958 144.405 201.143C144.854 201.329 145.348 201.378 145.825 201.283C146.301 201.188 146.739 200.955 147.082 200.611C147.426 200.268 147.66 199.831 147.754 199.355C147.849 198.879 147.8 198.385 147.615 197.937C147.429 197.489 147.114 197.105 146.71 196.836C146.306 196.566 145.831 196.422 145.345 196.422C145.022 196.421 144.702 196.483 144.404 196.606C144.105 196.729 143.834 196.91 143.606 197.138C143.377 197.366 143.196 197.637 143.073 197.935C142.95 198.234 142.888 198.553 142.889 198.876Z" stroke="#ECEEF2" stroke-width="1.03338" stroke-miterlimit="10"/>
<path d="M157.513 387.098V303.659L135.438 264.641V222.974" stroke="#ECEEF2" stroke-width="1.03338" stroke-miterlimit="10"/>
<path d="M132.982 220.53C132.98 221.016 133.122 221.491 133.391 221.896C133.66 222.301 134.042 222.617 134.491 222.804C134.94 222.992 135.434 223.042 135.911 222.948C136.388 222.855 136.827 222.622 137.171 222.279C137.516 221.936 137.751 221.499 137.846 221.023C137.942 220.546 137.894 220.052 137.708 219.603C137.523 219.154 137.208 218.77 136.804 218.5C136.4 218.23 135.924 218.086 135.438 218.086C134.789 218.089 134.168 218.347 133.708 218.804C133.248 219.262 132.987 219.882 132.982 220.53Z" stroke="#ECEEF2" stroke-width="1.03338" stroke-miterlimit="10"/>
<path d="M158.815 434.038C219.464 434.038 268.63 426.194 268.63 416.519C268.63 406.843 219.464 399 158.815 399C98.1659 399 49 406.843 49 416.519C49 426.194 98.1659 434.038 158.815 434.038Z" fill="#D4DAE4"/>
<path d="M145.143 314H134.267C129.701 314 126 317.701 126 322.267V333.12C126 337.685 129.701 341.387 134.267 341.387H145.143C149.709 341.387 153.41 337.685 153.41 333.12V322.267C153.41 317.701 149.709 314 145.143 314Z" fill="#37474F"/>
<path d="M139.705 336.829C144.761 336.829 148.859 332.734 148.859 327.683C148.859 322.632 144.761 318.537 139.705 318.537C134.65 318.537 130.551 322.632 130.551 327.683C130.551 332.734 134.65 336.829 139.705 336.829Z" fill="#4D5A6D"/>
<path d="M138.033 330.507V325.024C138.033 324.454 137.571 323.992 137.001 323.992C136.431 323.992 135.969 324.454 135.969 325.024V330.507C135.969 331.077 136.431 331.539 137.001 331.539C137.571 331.539 138.033 331.077 138.033 330.507Z" fill="#37414F"/>
<path d="M143.771 330.507V325.024C143.771 324.454 143.309 323.992 142.739 323.992C142.169 323.992 141.707 324.454 141.707 325.024V330.507C141.707 331.077 142.169 331.539 142.739 331.539C143.309 331.539 143.771 331.077 143.771 330.507Z" fill="#37414F"/>
<path d="M0.0292969 387.149L55.0246 386.902L110.02 386.809L220 386.634L329.98 386.809L384.976 386.902L439.971 387.149L384.976 387.407L329.98 387.5L220 387.665L110.02 387.49L55.0246 387.397L0.0292969 387.149Z" fill="#37414F"/>
<path d="M146.768 141.332V126.494H149.111V141.332H146.768Z" fill="#37414F"/>
<path d="M154.807 130.887V141.332H152.465V126.494H154.302L162.795 137.198V126.515H165.158V141.332H163.218L154.807 130.887Z" fill="#37414F"/>
<path d="M179.4 128.567H174.467V141.332H172.104V128.567H167.15V126.505H179.4V128.567Z" fill="#37414F"/>
<path d="M191.578 139.27V141.332H181.392V126.494H191.392V128.557H183.734V132.774H190.37V134.723H183.734V139.26L191.578 139.27Z" fill="#37414F"/>
<path d="M194.003 141.332V126.494H200.432C201.072 126.49 201.705 126.635 202.279 126.917C202.832 127.182 203.326 127.554 203.734 128.01C204.14 128.466 204.461 128.989 204.684 129.557C204.912 130.121 205.031 130.722 205.035 131.33C205.037 131.816 204.964 132.3 204.818 132.764C204.688 133.217 204.49 133.648 204.23 134.042C203.987 134.438 203.676 134.787 203.311 135.073C202.96 135.36 202.557 135.577 202.125 135.713L205.613 141.353H202.96L199.741 136.197H196.304V141.353L194.003 141.332ZM196.345 134.114H200.473C200.789 134.118 201.101 134.043 201.381 133.898C201.656 133.748 201.896 133.54 202.083 133.29C202.271 133.005 202.411 132.692 202.496 132.362C202.606 132.029 202.662 131.681 202.661 131.33C202.66 130.978 202.593 130.628 202.465 130.299C202.339 129.983 202.165 129.687 201.949 129.423C201.737 129.179 201.482 128.976 201.196 128.825C200.918 128.683 200.61 128.609 200.298 128.608H196.304L196.345 134.114Z" fill="#37414F"/>
<path d="M210.174 130.887V141.332H207.831V126.494H209.72L218.213 137.198V126.515H220.577V141.332H218.636L210.174 130.887Z" fill="#37414F"/>
<path d="M228.296 126.494H230.36L236.222 141.332H233.745L232.176 137.301H226.449L224.901 141.332H222.414L228.296 126.494ZM231.712 135.568L229.328 129.196L226.861 135.568H231.712Z" fill="#37414F"/>
<path d="M237.997 141.332V126.494H240.339V139.27H248.306V141.332H237.997Z" fill="#37414F"/>
<path d="M263.601 129.99C263.418 129.801 263.214 129.635 262.992 129.495C262.699 129.302 262.388 129.14 262.063 129.01C261.683 128.848 261.289 128.72 260.887 128.629C260.46 128.534 260.024 128.486 259.586 128.485C258.817 128.42 258.047 128.613 257.398 129.031C257.169 129.207 256.985 129.436 256.863 129.698C256.74 129.96 256.683 130.248 256.697 130.536C256.684 130.846 256.76 131.154 256.913 131.423C257.09 131.673 257.324 131.878 257.594 132.021C257.96 132.22 258.348 132.376 258.75 132.485C259.204 132.616 259.741 132.76 260.36 132.918C261.06 133.076 261.749 133.276 262.424 133.516C262.975 133.709 263.493 133.984 263.962 134.331C264.373 134.649 264.708 135.054 264.942 135.517C265.184 136.051 265.3 136.633 265.283 137.218C265.299 137.892 265.153 138.56 264.86 139.167C264.58 139.695 264.176 140.148 263.683 140.487C263.163 140.846 262.577 141.102 261.96 141.24C261.267 141.409 260.557 141.492 259.844 141.487C258.733 141.488 257.629 141.314 256.573 140.971C255.54 140.643 254.573 140.137 253.714 139.476L254.746 137.414C254.981 137.649 255.244 137.854 255.53 138.022C255.904 138.268 256.302 138.475 256.717 138.641C257.197 138.836 257.69 138.998 258.193 139.126C258.733 139.259 259.288 139.325 259.844 139.322C260.588 139.362 261.327 139.194 261.98 138.837C262.223 138.69 262.421 138.48 262.554 138.23C262.687 137.979 262.749 137.697 262.734 137.414C262.746 137.078 262.644 136.747 262.445 136.476C262.225 136.202 261.951 135.977 261.64 135.816C261.234 135.608 260.809 135.439 260.371 135.311C259.865 135.156 259.339 134.991 258.657 134.826C257.999 134.658 257.351 134.451 256.717 134.207C256.22 134.023 255.756 133.758 255.345 133.424C254.998 133.143 254.717 132.792 254.519 132.392C254.321 131.919 254.226 131.41 254.24 130.897C254.226 130.231 254.367 129.571 254.653 128.969C254.922 128.414 255.314 127.928 255.799 127.546C256.304 127.149 256.883 126.855 257.502 126.68C258.195 126.478 258.915 126.377 259.638 126.381C260.585 126.373 261.526 126.537 262.414 126.866C263.212 127.154 263.966 127.553 264.653 128.051L263.601 129.99Z" fill="#37414F"/>
<path d="M277.832 139.27V141.332H267.646V126.494H277.646V128.557H269.989V132.774H276.624V134.723H269.989V139.26L277.832 139.27Z" fill="#37414F"/>
<path d="M280.206 141.332V126.494H286.676C287.316 126.49 287.949 126.635 288.523 126.917C289.076 127.182 289.57 127.554 289.979 128.01C290.384 128.466 290.706 128.989 290.928 129.557C291.15 130.121 291.259 130.724 291.248 131.33C291.25 131.816 291.177 132.3 291.031 132.764C290.9 133.215 290.706 133.646 290.453 134.042C290.207 134.438 289.893 134.787 289.525 135.073C289.173 135.36 288.77 135.577 288.338 135.713L291.826 141.353H289.184L285.964 136.197H282.528V141.353L280.206 141.332ZM282.548 134.114H286.676C286.992 134.119 287.304 134.045 287.584 133.898C287.859 133.748 288.098 133.54 288.286 133.29C288.488 133.023 288.641 132.722 288.74 132.403C288.854 132.071 288.913 131.723 288.916 131.372C288.911 131.018 288.841 130.669 288.709 130.341C288.587 130.022 288.412 129.726 288.193 129.464C287.981 129.22 287.726 129.017 287.44 128.866C287.165 128.725 286.861 128.651 286.552 128.65H282.569L282.548 134.114Z" fill="#37414F"/>
<path d="M294.623 126.494L299.102 138.394L303.56 126.494H306.047L300.103 141.332H298.039L292.084 126.494H294.623Z" fill="#37414F"/>
<path d="M318.08 139.27V141.332H307.863V126.494H317.863V128.557H310.206V132.774H316.842V134.723H310.206V139.26L318.08 139.27Z" fill="#37414F"/>
<path d="M320.474 141.332V126.494H326.945C327.585 126.49 328.218 126.635 328.792 126.917C329.345 127.182 329.839 127.554 330.247 128.01C330.653 128.466 330.974 128.989 331.197 129.557C331.425 130.121 331.544 130.722 331.548 131.33C331.55 131.816 331.476 132.3 331.331 132.764C331.2 133.215 331.006 133.646 330.753 134.042C330.504 134.436 330.19 134.785 329.824 135.073C329.473 135.36 329.07 135.577 328.637 135.713L332.126 141.353H329.432L326.212 136.197H322.776V141.353L320.474 141.332ZM322.817 134.114H326.945C327.261 134.118 327.573 134.043 327.853 133.898C328.128 133.748 328.367 133.54 328.555 133.29C328.753 133.02 328.907 132.721 329.009 132.403C329.119 132.07 329.175 131.722 329.174 131.372C329.173 131.019 329.106 130.669 328.978 130.341C328.852 130.024 328.678 129.728 328.462 129.464C328.25 129.22 327.995 129.017 327.709 128.866C327.431 128.724 327.123 128.65 326.811 128.65H322.838L322.817 134.114Z" fill="#37414F"/>
<path d="M218.058 161.12V164.13H207.656V149.293H217.914V152.303H211.092V155.18H216.944V157.964H211.092V161.12H218.058Z" fill="#37414F"/>
<path d="M220.154 164.13V149.293H226.841C227.512 149.287 228.176 149.435 228.781 149.726C229.378 150.022 229.913 150.428 230.36 150.922C230.793 151.396 231.142 151.939 231.392 152.53C231.631 153.105 231.754 153.722 231.753 154.345C231.756 154.794 231.701 155.241 231.588 155.675C231.479 156.092 231.32 156.494 231.113 156.871C230.907 157.248 230.65 157.595 230.35 157.902C230.045 158.206 229.697 158.463 229.318 158.666L232.579 164.182H228.709L225.871 159.398H223.631V164.182L220.154 164.13ZM223.58 156.356H226.676C226.881 156.349 227.082 156.293 227.262 156.192C227.441 156.092 227.594 155.95 227.708 155.778C228.019 155.352 228.176 154.832 228.152 154.304C228.18 153.769 227.998 153.244 227.646 152.84C227.52 152.684 227.364 152.556 227.186 152.463C227.009 152.371 226.814 152.317 226.614 152.303H223.58V156.356Z" fill="#37414F"/>
<path d="M234.168 164.13V149.293H240.855C241.527 149.287 242.19 149.435 242.795 149.726C243.374 150.014 243.895 150.406 244.333 150.881C244.77 151.352 245.119 151.896 245.365 152.489C245.608 153.064 245.734 153.68 245.737 154.304C245.736 154.753 245.677 155.2 245.561 155.634C245.453 156.051 245.293 156.452 245.087 156.83C244.88 157.207 244.623 157.554 244.323 157.861C244.018 158.165 243.67 158.422 243.291 158.624L246.562 164.141H242.692L239.844 159.356H237.584V164.141L234.168 164.13ZM237.594 156.356H240.69C240.896 156.349 241.097 156.293 241.276 156.192C241.456 156.092 241.609 155.95 241.722 155.778C242.034 155.352 242.19 154.832 242.166 154.304C242.194 153.769 242.013 153.244 241.66 152.84C241.529 152.677 241.364 152.545 241.177 152.453C240.99 152.36 240.785 152.309 240.577 152.303H237.584L237.594 156.356Z" fill="#37414F"/>
<path d="M254.684 164.254C253.643 164.268 252.613 164.046 251.671 163.605C250.793 163.194 250.004 162.616 249.349 161.903C248.707 161.197 248.2 160.379 247.852 159.49C247.503 158.597 247.325 157.645 247.326 156.686C247.322 155.721 247.507 154.764 247.873 153.871C248.602 152.068 249.999 150.616 251.774 149.818C252.71 149.408 253.723 149.2 254.746 149.21C255.785 149.198 256.815 149.417 257.76 149.849C258.64 150.264 259.43 150.849 260.082 151.571C260.721 152.281 261.225 153.103 261.568 153.995C261.913 154.872 262.091 155.805 262.094 156.748C262.096 157.717 261.906 158.677 261.537 159.573C261.176 160.458 260.655 161.27 259.999 161.965C259.333 162.664 258.537 163.228 257.656 163.625C256.724 164.052 255.709 164.266 254.684 164.254ZM250.814 156.727C250.813 157.293 250.897 157.856 251.062 158.397C251.225 158.911 251.477 159.392 251.805 159.82C252.136 160.248 252.554 160.6 253.033 160.852C253.553 161.107 254.126 161.234 254.705 161.223C255.273 161.239 255.837 161.117 256.347 160.867C256.858 160.618 257.3 160.248 257.636 159.789C257.959 159.354 258.204 158.866 258.358 158.346C258.514 157.813 258.594 157.261 258.595 156.706C258.596 156.144 258.513 155.584 258.348 155.046C258.189 154.529 257.933 154.046 257.594 153.623C257.258 153.215 256.84 152.881 256.366 152.644C255.839 152.399 255.265 152.273 254.684 152.273C254.103 152.273 253.529 152.399 253.002 152.644C252.529 152.899 252.114 153.25 251.784 153.675C251.458 154.106 251.21 154.591 251.052 155.108C250.897 155.634 250.817 156.179 250.814 156.727Z" fill="#37414F"/>
<path d="M264.075 164.131V149.293H270.773C271.441 149.286 272.102 149.435 272.703 149.726C273.283 150.011 273.805 150.403 274.241 150.881C274.677 151.352 275.026 151.897 275.273 152.489C275.507 153.066 275.63 153.682 275.634 154.304C275.637 154.753 275.581 155.2 275.469 155.634C275.357 156.051 275.194 156.453 274.984 156.83C274.781 157.209 274.524 157.557 274.22 157.861C273.914 158.163 273.566 158.42 273.188 158.624L276.449 164.141H272.579L269.731 159.356H267.512V164.141L264.075 164.131ZM267.512 156.356H270.608C270.814 156.349 271.015 156.293 271.194 156.192C271.374 156.092 271.527 155.95 271.64 155.778C271.947 155.349 272.103 154.831 272.084 154.304C272.106 153.77 271.925 153.247 271.578 152.84C271.445 152.679 271.28 152.549 271.093 152.456C270.907 152.364 270.703 152.312 270.494 152.303H267.512V156.356Z" fill="#37414F"/>
<path d="M156.229 109.53C149.597 109.53 143.709 108.366 138.566 106.037C133.452 103.681 129.419 100.441 126.468 96.3176C123.546 92.1941 122.056 87.4534 122 82.0956H144.763C144.847 85.0691 145.999 87.4394 148.22 89.2066C150.468 90.9739 153.137 91.8575 156.229 91.8575C158.617 91.8575 160.725 91.3526 162.552 90.3427C164.378 89.3048 165.812 87.8462 166.851 85.9667C167.891 84.0873 168.397 81.8993 168.369 79.4027C168.397 76.8781 167.891 74.6901 166.851 72.8387C165.812 70.9593 164.378 69.5147 162.552 68.5048C160.725 67.4669 158.617 66.948 156.229 66.948C153.756 66.948 151.465 67.5511 149.358 68.7573C147.278 69.9354 145.747 71.5764 144.763 73.6803L124.192 69.6409L127.564 22.1782H185.568V40.8603H146.786L145.1 59.879H145.606C146.955 57.2703 149.287 55.1103 152.604 53.3992C155.92 51.66 159.77 50.7904 164.154 50.7904C169.296 50.7904 173.877 51.9826 177.896 54.367C181.942 56.7513 185.132 60.0474 187.465 64.255C189.825 68.4347 190.991 73.2595 190.963 78.7295C190.991 84.7325 189.558 90.0622 186.664 94.7187C183.797 99.3472 179.765 102.98 174.566 105.617C169.367 108.225 163.254 109.53 156.229 109.53Z" fill="#37414F"/>
<path d="M235.575 110.708C227.734 110.68 220.961 108.871 215.257 105.28C209.552 101.689 205.154 96.514 202.063 89.7536C198.971 82.9933 197.44 74.8865 197.468 65.4332C197.496 55.9519 199.042 47.9012 202.105 41.2811C205.196 34.661 209.58 29.6258 215.257 26.1755C220.961 22.7252 227.734 21 235.575 21C243.415 21 250.188 22.7392 255.893 26.2175C261.598 29.6678 265.996 34.703 269.087 41.3231C272.178 47.9432 273.71 55.9799 273.682 65.4332C273.682 74.9426 272.136 83.0774 269.045 89.8378C265.953 96.5981 261.555 101.774 255.851 105.364C250.174 108.927 243.415 110.708 235.575 110.708ZM235.575 91.6892C239.621 91.6892 242.938 89.5853 245.523 85.3776C248.137 81.1419 249.429 74.4938 249.401 65.4332C249.401 59.5144 248.811 54.6755 247.631 50.9167C246.45 47.1578 244.82 44.3807 242.741 42.5854C240.661 40.7621 238.273 39.8504 235.575 39.8504C231.528 39.8504 228.226 41.8982 225.669 45.9937C223.111 50.0892 221.805 56.569 221.748 65.4332C221.72 71.4642 222.296 76.4293 223.477 80.3284C224.657 84.1995 226.287 87.0607 228.366 88.9121C230.474 90.7635 232.877 91.6892 235.575 91.6892Z" fill="#37414F"/>
<path d="M319.189 110.708C311.348 110.68 304.575 108.871 298.871 105.28C293.166 101.689 288.768 96.514 285.677 89.7536C282.585 82.9933 281.054 74.8865 281.082 65.4332C281.11 55.9519 282.656 47.9012 285.719 41.2811C288.81 34.661 293.194 29.6258 298.871 26.1755C304.575 22.7252 311.348 21 319.189 21C327.029 21 333.802 22.7392 339.507 26.2175C345.212 29.6678 349.61 34.703 352.701 41.3231C355.792 47.9432 357.324 55.9799 357.296 65.4332C357.296 74.9426 355.75 83.0774 352.659 89.8378C349.567 96.5981 345.169 101.774 339.465 105.364C333.788 108.927 327.029 110.708 319.189 110.708ZM319.189 91.6892C323.235 91.6892 326.552 89.5853 329.137 85.3776C331.751 81.1419 333.043 74.4938 333.015 65.4332C333.015 59.5144 332.425 54.6755 331.245 50.9167C330.064 47.1578 328.434 44.3807 326.355 42.5854C324.275 40.7621 321.887 39.8504 319.189 39.8504C315.142 39.8504 311.84 41.8982 309.283 45.9937C306.725 50.0892 305.419 56.569 305.362 65.4332C305.334 71.4642 305.91 76.4293 307.091 80.3284C308.271 84.1995 309.901 87.0607 311.98 88.9121C314.088 90.7635 316.491 91.6892 319.189 91.6892Z" fill="#37414F"/>
<path d="M202.991 268.182C202.991 268.182 188.393 300.662 192.283 327.306C193.443 335.105 196.39 342.53 200.894 349.004C205.397 355.477 211.336 360.823 218.246 364.626C218.246 364.626 200.787 369.063 203.766 378.572C206.746 388.082 221.862 383.494 226.887 380.954C231.913 378.414 238.688 370.059 240.058 364.197C240.861 361.212 241.338 358.148 241.481 355.06C241.481 355.06 260.952 354.722 274.972 345.216C274.972 345.216 285.725 355.449 294.197 354.421C302.669 353.393 315.871 339.62 315.879 326.173C315.887 312.726 308.194 312.046 303.313 313.649C300.791 314.352 298.439 315.563 296.404 317.21C296.404 317.21 303.977 309.479 298.193 297.338C296.484 293.775 293.986 290.648 290.889 288.193C287.792 285.739 284.176 284.021 280.316 283.17C280.316 283.17 278.448 263.858 268.427 255.782C258.406 247.705 221.061 236.917 202.991 268.182Z" fill="white"/>
<mask id="mask0_4559_63404" style="mask-type:luminance" maskUnits="userSpaceOnUse" x="191" y="247" width="125" height="138">
<path d="M202.991 268.182C202.991 268.182 188.393 300.662 192.283 327.306C193.443 335.105 196.39 342.53 200.894 349.004C205.397 355.477 211.336 360.823 218.246 364.626C218.246 364.626 200.787 369.063 203.766 378.572C206.746 388.082 221.862 383.494 226.887 380.954C231.913 378.414 238.688 370.059 240.058 364.197C240.861 361.212 241.338 358.148 241.481 355.06C241.481 355.06 260.952 354.722 274.972 345.216C274.972 345.216 285.725 355.449 294.197 354.421C302.669 353.393 315.871 339.62 315.879 326.173C315.887 312.726 308.194 312.046 303.313 313.649C300.791 314.352 298.439 315.563 296.404 317.21C296.404 317.21 303.977 309.479 298.193 297.338C296.484 293.775 293.986 290.648 290.889 288.193C287.792 285.739 284.176 284.021 280.316 283.17C280.316 283.17 278.448 263.858 268.427 255.782C258.406 247.705 221.061 236.917 202.991 268.182Z" fill="white"/>
</mask>
<g mask="url(#mask0_4559_63404)">
<path d="M290.12 287.646C283.789 296.33 275.474 303.378 265.868 308.203C256.263 313.028 245.643 315.49 234.893 315.386C211.093 315.335 198.274 309.494 192.483 305.716C194.388 292.813 197.947 280.209 203.072 268.214C221.143 236.949 258.459 247.782 268.504 255.861C278.549 263.939 280.393 283.249 280.393 283.249C283.909 284.015 287.223 285.513 290.12 287.646ZM303.313 313.649C300.791 314.352 298.439 315.563 296.404 317.21C298.027 315.349 299.187 313.131 299.788 310.736C283.029 317.279 282.747 334.439 280.755 334.26C278.298 334.039 277.853 325.358 277.853 325.358C277.853 325.358 273.686 337.325 254.512 344.252C235.338 351.178 215.135 342.558 215.135 342.558C215.135 342.558 218.546 352.743 207.625 350.522C204.556 349.948 201.685 348.597 199.286 346.599C203.942 354.125 210.467 360.318 218.227 364.576C218.227 364.576 200.767 369.013 203.747 378.522C206.726 388.032 221.854 383.445 226.868 380.904C231.881 378.363 238.669 370.009 240.038 364.147C240.841 361.162 241.319 358.098 241.461 355.01C241.461 355.01 260.932 354.672 274.952 345.166C274.952 345.166 285.705 355.399 294.177 354.371C302.649 353.343 315.851 339.57 315.859 326.123C315.867 312.676 308.194 312.046 303.313 313.649Z" fill="#D3B9A1"/>
<path opacity="0.5" d="M290.12 287.646C283.789 296.33 275.474 303.378 265.868 308.203C256.263 313.028 245.643 315.49 234.893 315.386C211.093 315.335 198.274 309.494 192.483 305.716C194.388 292.813 197.947 280.209 203.072 268.214C221.143 236.949 258.459 247.782 268.504 255.861C278.549 263.939 280.393 283.249 280.393 283.249C283.909 284.015 287.223 285.513 290.12 287.646ZM303.313 313.649C300.791 314.352 298.439 315.563 296.404 317.21C298.027 315.349 299.187 313.131 299.788 310.736C283.029 317.279 282.747 334.439 280.755 334.26C278.298 334.039 277.853 325.358 277.853 325.358C277.853 325.358 273.686 337.325 254.512 344.252C235.338 351.178 215.135 342.558 215.135 342.558C215.135 342.558 218.546 352.743 207.625 350.522C204.556 349.948 201.685 348.597 199.286 346.599C203.942 354.125 210.467 360.318 218.227 364.576C218.227 364.576 200.767 369.013 203.747 378.522C206.726 388.032 221.854 383.445 226.868 380.904C231.881 378.363 238.669 370.009 240.038 364.147C240.841 361.162 241.319 358.098 241.461 355.01C241.461 355.01 260.932 354.672 274.952 345.166C274.952 345.166 285.705 355.399 294.177 354.371C302.649 353.343 315.851 339.57 315.859 326.123C315.867 312.676 308.194 312.046 303.313 313.649Z" fill="white"/>
<path d="M241.539 355.089C235.123 354.683 228.886 352.813 223.306 349.621C217.726 346.429 212.953 342.001 209.353 336.677" stroke="#263238" stroke-width="1.32916" stroke-linecap="round" stroke-linejoin="round"/>
</g>
<path d="M202.991 268.182C202.991 268.182 188.393 300.662 192.283 327.306C193.443 335.105 196.39 342.53 200.894 349.004C205.397 355.477 211.336 360.823 218.246 364.626C218.246 364.626 200.787 369.063 203.766 378.572C206.746 388.082 221.862 383.494 226.887 380.954C231.913 378.414 238.688 370.059 240.058 364.197C240.861 361.212 241.338 358.148 241.481 355.06C241.481 355.06 260.952 354.722 274.972 345.216C274.972 345.216 285.725 355.449 294.197 354.421C302.669 353.393 315.871 339.62 315.879 326.173C315.887 312.726 308.194 312.046 303.313 313.649C300.791 314.352 298.439 315.563 296.404 317.21C296.404 317.21 303.977 309.479 298.193 297.338C296.484 293.775 293.986 290.648 290.889 288.193C287.792 285.739 284.176 284.021 280.316 283.17C280.316 283.17 278.448 263.858 268.427 255.782C258.406 247.705 221.061 236.917 202.991 268.182Z" stroke="#263238" stroke-width="1.32916" stroke-linecap="round" stroke-linejoin="round"/>
<path d="M307.345 323.746C306.422 325.851 304.314 326.971 302.649 326.232C300.984 325.493 300.398 323.193 301.321 321.089C302.243 318.985 304.352 317.865 306.017 318.604C307.681 319.342 308.28 321.643 307.345 323.746Z" fill="white" stroke="#263238" stroke-width="1.32916" stroke-linecap="round" stroke-linejoin="round"/>
<path d="M313.139 328.161C312.217 330.265 310.108 331.386 308.443 330.647C306.779 329.908 306.18 327.607 307.115 325.504C308.05 323.401 310.146 322.28 311.811 323.018C313.476 323.757 314.074 326.058 313.139 328.161Z" fill="white" stroke="#263238" stroke-width="1.32916" stroke-linecap="round" stroke-linejoin="round"/>
<path d="M313.931 334.061C313.657 334.439 313.281 334.731 312.848 334.904C312.414 335.077 311.941 335.123 311.482 335.037C311.023 334.952 310.598 334.738 310.256 334.421C309.914 334.103 309.669 333.695 309.549 333.244C309.43 332.793 309.441 332.318 309.581 331.873C309.721 331.428 309.985 331.032 310.341 330.731C310.698 330.429 311.132 330.236 311.594 330.171C312.057 330.107 312.528 330.175 312.953 330.368C313.557 330.742 313.996 331.333 314.178 332.02C314.36 332.707 314.271 333.438 313.931 334.061Z" fill="white" stroke="#263238" stroke-width="1.32916" stroke-linecap="round" stroke-linejoin="round"/>
<path d="M305.381 341.295C302.885 344.976 298.438 346.306 295.435 344.27C292.432 342.233 292.03 337.618 294.526 333.937C297.021 330.256 301.469 328.926 304.471 330.963C307.474 332.999 307.876 337.614 305.381 341.295Z" fill="white" stroke="#263238" stroke-width="1.32916" stroke-linecap="round" stroke-linejoin="round"/>
<path d="M218.244 364.649C222.075 366.869 226.59 367.597 230.924 366.692" stroke="#263238" stroke-width="1.32916" stroke-linecap="round" stroke-linejoin="round"/>
<path d="M203.824 378.601C203.824 378.601 205.47 373.666 213.196 370.78" stroke="#263238" stroke-width="1.32916" stroke-linecap="round" stroke-linejoin="round"/>
<path d="M210.84 383.728C210.84 383.728 214.454 376.842 219.789 374.066" stroke="#263238" stroke-width="1.32916" stroke-linecap="round" stroke-linejoin="round"/>
<path d="M146.735 413.858C120.434 409.532 108.461 383.607 106.223 362.169L106.152 361.418C106.017 360.374 106.094 359.313 106.378 358.3C106.662 357.286 107.147 356.34 107.805 355.519C108.464 354.697 109.281 354.017 110.208 353.518C111.136 353.019 112.154 352.713 113.203 352.617C114.251 352.521 115.309 352.637 116.311 352.959C117.314 353.281 118.241 353.801 119.038 354.49C119.835 355.178 120.485 356.02 120.949 356.965C121.412 357.91 121.681 358.939 121.738 359.99L121.792 360.545C123.49 376.86 132.169 396.615 150.971 398.652C154.495 399.107 158.074 398.816 161.478 397.798C164.882 396.78 168.033 395.058 170.727 392.743C182.874 382.708 191.637 357.985 192.734 344.968C192.773 344.128 192.982 343.304 193.347 342.546C193.712 341.788 194.226 341.111 194.859 340.557C195.491 340.002 196.229 339.58 197.029 339.317C197.828 339.054 198.672 338.954 199.511 339.024C200.35 339.095 201.166 339.333 201.91 339.726C202.655 340.118 203.313 340.657 203.844 341.309C204.376 341.961 204.77 342.714 205.004 343.522C205.239 344.331 205.307 345.178 205.206 346.013C204.036 360.509 197.42 390.995 180.697 404.802C176.398 408.449 171.39 411.166 165.989 412.783C160.587 414.4 154.909 414.881 149.313 414.197C148.44 414.114 147.574 413.996 146.735 413.858Z" fill="white"/>
<mask id="mask1_4559_63404" style="mask-type:luminance" maskUnits="userSpaceOnUse" x="106" y="339" width="100" height="76">
<path d="M146.735 413.858C120.434 409.532 108.461 383.607 106.223 362.169L106.152 361.418C106.017 360.374 106.094 359.313 106.378 358.3C106.662 357.286 107.147 356.34 107.805 355.519C108.464 354.697 109.281 354.017 110.208 353.518C111.136 353.019 112.154 352.713 113.203 352.617C114.251 352.521 115.309 352.637 116.311 352.959C117.314 353.281 118.241 353.801 119.038 354.49C119.835 355.178 120.485 356.02 120.949 356.965C121.412 357.91 121.681 358.939 121.738 359.99L121.792 360.545C123.49 376.86 132.169 396.615 150.971 398.652C154.495 399.107 158.074 398.816 161.478 397.798C164.882 396.78 168.033 395.058 170.727 392.743C182.874 382.708 191.637 357.985 192.734 344.968C192.773 344.128 192.982 343.304 193.347 342.546C193.712 341.788 194.226 341.111 194.859 340.557C195.491 340.002 196.229 339.58 197.029 339.317C197.828 339.054 198.672 338.954 199.511 339.024C200.35 339.095 201.166 339.333 201.91 339.726C202.655 340.118 203.313 340.657 203.844 341.309C204.376 341.961 204.77 342.714 205.004 343.522C205.239 344.331 205.307 345.178 205.206 346.013C204.036 360.509 197.42 390.995 180.697 404.802C176.398 408.449 171.39 411.166 165.989 412.783C160.587 414.4 154.909 414.881 149.313 414.197C148.44 414.114 147.574 413.996 146.735 413.858Z" fill="white"/>
</mask>
<g mask="url(#mask1_4559_63404)">
<path d="M199.487 339.25C197.833 339.114 196.192 339.64 194.926 340.712C193.66 341.784 192.871 343.315 192.734 344.968C192.199 351.321 189.835 360.454 186.138 369.356C189.265 369.736 192.304 370.646 195.124 372.047C192.96 380.817 188.437 388.827 182.044 395.211C167.951 409.256 149.911 411.517 136.839 407.402C130.988 405.567 124.64 401.296 119.393 397.122C125.976 406.053 135.783 412.066 146.731 413.881C147.57 414.019 148.432 414.161 149.307 414.232C154.904 414.917 160.582 414.435 165.983 412.819C171.384 411.202 176.392 408.484 180.691 404.838C197.414 391.031 203.983 360.537 205.201 346.048C205.276 345.226 205.188 344.397 204.941 343.609C204.694 342.821 204.293 342.09 203.762 341.458C203.23 340.826 202.579 340.305 201.845 339.926C201.112 339.547 200.31 339.317 199.487 339.25Z" fill="#D3B9A1"/>
<path opacity="0.5" d="M199.487 339.25C197.833 339.114 196.192 339.64 194.926 340.712C193.66 341.784 192.871 343.315 192.734 344.968C192.199 351.321 189.835 360.454 186.138 369.356C189.265 369.736 192.304 370.646 195.124 372.047C192.96 380.817 188.437 388.827 182.044 395.211C167.951 409.256 149.911 411.517 136.839 407.402C130.988 405.567 124.64 401.296 119.393 397.122C125.976 406.053 135.783 412.066 146.731 413.881C147.57 414.019 148.432 414.161 149.307 414.232C154.904 414.917 160.582 414.435 165.983 412.819C171.384 411.202 176.392 408.484 180.691 404.838C197.414 391.031 203.983 360.537 205.201 346.048C205.276 345.226 205.188 344.397 204.941 343.609C204.694 342.821 204.293 342.09 203.762 341.458C203.23 340.826 202.579 340.305 201.845 339.926C201.112 339.547 200.31 339.317 199.487 339.25Z" fill="white"/>
</g>
<path d="M146.735 413.858C120.434 409.532 108.461 383.607 106.223 362.169L106.152 361.418C106.017 360.374 106.094 359.313 106.378 358.3C106.662 357.286 107.147 356.34 107.805 355.519C108.464 354.697 109.281 354.017 110.208 353.518C111.136 353.019 112.154 352.713 113.203 352.617C114.251 352.521 115.309 352.637 116.311 352.959C117.314 353.281 118.241 353.801 119.038 354.49C119.835 355.178 120.485 356.02 120.949 356.965C121.412 357.91 121.681 358.939 121.738 359.99L121.792 360.545C123.49 376.86 132.169 396.615 150.971 398.652C154.495 399.107 158.074 398.816 161.478 397.798C164.882 396.78 168.033 395.058 170.727 392.743C182.874 382.708 191.637 357.985 192.734 344.968C192.773 344.128 192.982 343.304 193.347 342.546C193.712 341.788 194.226 341.111 194.859 340.557C195.491 340.002 196.229 339.58 197.029 339.317C197.828 339.054 198.672 338.954 199.511 339.024C200.35 339.095 201.166 339.333 201.91 339.726C202.655 340.118 203.313 340.657 203.844 341.309C204.376 341.961 204.77 342.714 205.004 343.522C205.239 344.331 205.307 345.178 205.206 346.013C204.036 360.509 197.42 390.995 180.697 404.802C176.398 408.449 171.39 411.166 165.989 412.783C160.587 414.4 154.909 414.881 149.313 414.197C148.44 414.114 147.574 413.996 146.735 413.858Z" stroke="#263238" stroke-width="1.32916" stroke-linecap="round" stroke-linejoin="round"/>
<path d="M134.192 395.383C135.294 392.593 127.626 395.977 121.132 399.24C122.98 401.405 125.025 403.394 127.241 405.181C129.863 402.155 133.131 398.071 134.192 395.383Z" fill="#D3B9A1" stroke="#263238" stroke-width="1.32916" stroke-linecap="round" stroke-linejoin="round"/>
<path d="M146.735 413.858C147.574 413.996 148.436 414.138 149.311 414.209C151.844 414.481 154.396 414.539 156.939 414.384C154.377 409.596 150.812 403.235 149.594 402.599C148.199 401.86 144.16 408.631 141.855 412.764C143.459 413.224 145.088 413.589 146.735 413.858Z" fill="#D3B9A1" stroke="#263238" stroke-width="1.32916" stroke-linecap="round" stroke-linejoin="round"/>
<path d="M121.792 360.545L121.738 359.99C121.681 358.939 121.412 357.91 120.949 356.965C120.485 356.02 119.835 355.178 119.038 354.49C118.241 353.802 117.314 353.281 116.311 352.959C115.309 352.637 114.251 352.521 113.203 352.617C112.154 352.713 111.136 353.02 110.208 353.518C109.281 354.017 108.464 354.697 107.805 355.519C107.147 356.34 106.662 357.286 106.378 358.3C106.094 359.314 106.017 360.374 106.152 361.418L106.223 362.169C107.008 369.698 108.904 377.069 111.848 384.043L127.021 379.661C124.224 373.625 122.457 367.164 121.792 360.545Z" fill="#D3B9A1" stroke="#263238" stroke-width="1.32916" stroke-linecap="round" stroke-linejoin="round"/>
<path d="M180.697 404.803C181.984 403.729 183.203 402.576 184.347 401.351C180.131 399.093 173.79 395.891 171.271 395.708C168.285 395.495 170.724 405.601 172.048 410.391C175.14 408.873 178.043 406.997 180.697 404.803Z" fill="#D3B9A1" stroke="#263238" stroke-width="1.32916" stroke-linecap="round" stroke-linejoin="round"/>
<path d="M185.096 379.604C184.468 380.472 189.554 385.626 193.008 388.972C194.85 385.497 196.462 381.904 197.835 378.218C192.953 378.386 185.708 378.759 185.096 379.604Z" fill="#D3B9A1" stroke="#263238" stroke-width="1.32916" stroke-linecap="round" stroke-linejoin="round"/>
<path d="M202.064 364.455C202.878 361.132 203.536 357.941 204.033 354.99C199.602 356.554 194.272 358.855 193.938 360.887C193.604 362.918 198.077 363.908 202.064 364.455Z" fill="#D3B9A1" stroke="#263238" stroke-width="1.32916" stroke-linecap="round" stroke-linejoin="round"/>
<g clip-path="url(#clip0_4559_63404)">
<path d="M326.968 285.675H167.627V612.693H326.968V285.675Z" fill="#4D5A6D"/>
<path d="M317.021 378.684H179.585V410.483H317.021V378.684Z" fill="#37474F"/>
<path d="M263.597 383.94H185.364V386.621H263.597V383.94Z" fill="#4D5A6D"/>
<path d="M263.597 388.595H185.364V391.276H263.597V388.595Z" fill="#4D5A6D"/>
<path d="M263.597 393.25H185.364V395.931H263.597V393.25Z" fill="#4D5A6D"/>
<path d="M263.597 397.891H185.364V400.573H263.597V397.891Z" fill="#4D5A6D"/>
<path d="M263.597 402.547H185.364V405.228H263.597V402.547Z" fill="#4D5A6D"/>
<path d="M277.858 386.607C277.858 387.135 277.702 387.651 277.409 388.089C277.117 388.528 276.701 388.87 276.214 389.072C275.727 389.274 275.192 389.327 274.675 389.224C274.159 389.121 273.684 388.867 273.312 388.494C272.939 388.12 272.686 387.645 272.583 387.128C272.48 386.61 272.533 386.074 272.734 385.586C272.936 385.099 273.277 384.682 273.715 384.389C274.153 384.096 274.668 383.94 275.195 383.94C275.901 383.94 276.579 384.221 277.078 384.721C277.578 385.221 277.858 385.9 277.858 386.607Z" fill="#00BCD4"/>
<path d="M286.62 386.607C286.62 387.135 286.464 387.651 286.171 388.089C285.879 388.528 285.463 388.87 284.976 389.072C284.489 389.274 283.954 389.327 283.437 389.224C282.921 389.121 282.446 388.867 282.074 388.494C281.701 388.12 281.448 387.645 281.345 387.128C281.242 386.61 281.295 386.074 281.496 385.586C281.698 385.099 282.039 384.682 282.477 384.389C282.915 384.096 283.43 383.94 283.957 383.94C284.663 383.94 285.341 384.221 285.84 384.721C286.34 385.221 286.62 385.9 286.62 386.607Z" fill="#00BCD4"/>
<path d="M295.382 386.607C295.382 387.135 295.226 387.651 294.933 388.089C294.641 388.528 294.225 388.87 293.738 389.072C293.251 389.274 292.716 389.327 292.199 389.224C291.683 389.121 291.208 388.867 290.836 388.493C290.463 388.12 290.21 387.645 290.107 387.128C290.004 386.61 290.057 386.074 290.258 385.586C290.46 385.099 290.801 384.682 291.239 384.389C291.677 384.096 292.192 383.939 292.719 383.939C293.425 383.939 294.103 384.221 294.602 384.721C295.102 385.221 295.382 385.9 295.382 386.607Z" fill="#00BCD4"/>
<path d="M304.131 386.607C304.131 387.135 303.975 387.651 303.682 388.089C303.389 388.528 302.974 388.87 302.487 389.072C302 389.274 301.465 389.327 300.948 389.224C300.432 389.121 299.957 388.867 299.584 388.494C299.212 388.12 298.958 387.645 298.856 387.128C298.753 386.61 298.806 386.074 299.007 385.586C299.209 385.099 299.55 384.682 299.988 384.389C300.426 384.096 300.941 383.94 301.468 383.94C302.174 383.94 302.851 384.221 303.351 384.721C303.85 385.221 304.131 385.9 304.131 386.607Z" fill="#00BCD4"/>
<path d="M312.893 386.607C312.893 387.135 312.737 387.651 312.444 388.089C312.151 388.528 311.735 388.87 311.249 389.072C310.762 389.274 310.227 389.327 309.71 389.224C309.193 389.121 308.719 388.867 308.346 388.494C307.974 388.12 307.72 387.645 307.618 387.128C307.515 386.61 307.568 386.074 307.769 385.586C307.971 385.099 308.312 384.682 308.75 384.389C309.188 384.096 309.703 383.94 310.23 383.94C310.936 383.94 311.613 384.221 312.113 384.721C312.612 385.221 312.893 385.9 312.893 386.607Z" fill="#00BCD4"/>
<path d="M277.858 394.584C277.858 395.111 277.702 395.627 277.409 396.066C277.117 396.504 276.701 396.846 276.214 397.048C275.727 397.25 275.192 397.303 274.675 397.2C274.159 397.097 273.684 396.843 273.312 396.47C272.939 396.097 272.686 395.621 272.583 395.104C272.48 394.587 272.533 394.05 272.734 393.563C272.936 393.075 273.277 392.659 273.715 392.365C274.153 392.072 274.668 391.916 275.195 391.916C275.901 391.916 276.579 392.197 277.078 392.697C277.578 393.198 277.858 393.876 277.858 394.584Z" fill="#00BCD4"/>
<path d="M286.62 394.584C286.62 395.111 286.464 395.627 286.171 396.066C285.879 396.504 285.463 396.846 284.976 397.048C284.489 397.25 283.954 397.303 283.437 397.2C282.921 397.097 282.446 396.843 282.074 396.47C281.701 396.097 281.448 395.621 281.345 395.104C281.242 394.587 281.295 394.05 281.496 393.563C281.698 393.075 282.039 392.659 282.477 392.365C282.915 392.072 283.43 391.916 283.957 391.916C284.663 391.916 285.341 392.197 285.84 392.697C286.34 393.198 286.62 393.876 286.62 394.584Z" fill="#00BCD4"/>
<path d="M295.382 394.584C295.382 395.111 295.226 395.627 294.933 396.066C294.641 396.504 294.225 396.846 293.738 397.048C293.251 397.25 292.716 397.303 292.199 397.2C291.683 397.097 291.208 396.843 290.836 396.47C290.463 396.097 290.21 395.622 290.107 395.104C290.004 394.587 290.057 394.05 290.258 393.563C290.46 393.075 290.801 392.659 291.239 392.366C291.677 392.072 292.192 391.916 292.719 391.916C293.425 391.916 294.103 392.197 294.602 392.697C295.102 393.198 295.382 393.876 295.382 394.584Z" fill="#00BCD4"/>
<path d="M304.131 394.584C304.131 395.111 303.975 395.627 303.682 396.066C303.389 396.504 302.974 396.846 302.487 397.048C302 397.25 301.465 397.303 300.948 397.2C300.432 397.097 299.957 396.843 299.584 396.47C299.212 396.097 298.958 395.621 298.856 395.104C298.753 394.587 298.806 394.05 299.007 393.563C299.209 393.075 299.55 392.659 299.988 392.365C300.426 392.072 300.941 391.916 301.468 391.916C302.174 391.916 302.851 392.197 303.351 392.697C303.85 393.198 304.131 393.876 304.131 394.584Z" fill="#00BCD4"/>
<path d="M312.893 394.584C312.893 395.111 312.737 395.627 312.444 396.066C312.151 396.504 311.735 396.846 311.249 397.048C310.762 397.25 310.227 397.303 309.71 397.2C309.193 397.097 308.719 396.843 308.346 396.47C307.974 396.097 307.72 395.621 307.618 395.104C307.515 394.587 307.568 394.05 307.769 393.563C307.971 393.075 308.312 392.659 308.75 392.365C309.188 392.072 309.703 391.916 310.23 391.916C310.936 391.916 311.613 392.197 312.113 392.697C312.612 393.198 312.893 393.876 312.893 394.584Z" fill="#00BCD4"/>
<path d="M277.858 402.573C277.858 403.101 277.702 403.617 277.409 404.055C277.117 404.494 276.701 404.836 276.214 405.038C275.727 405.24 275.192 405.293 274.675 405.19C274.159 405.087 273.684 404.833 273.312 404.46C272.939 404.087 272.686 403.611 272.583 403.094C272.48 402.576 272.533 402.04 272.734 401.552C272.936 401.065 273.277 400.648 273.715 400.355C274.153 400.062 274.668 399.906 275.195 399.906C275.901 399.906 276.579 400.187 277.078 400.687C277.578 401.187 277.858 401.866 277.858 402.573Z" fill="#00BCD4"/>
<path d="M286.62 402.573C286.62 403.101 286.464 403.617 286.171 404.055C285.879 404.494 285.463 404.836 284.976 405.038C284.489 405.24 283.954 405.293 283.437 405.19C282.921 405.087 282.446 404.833 282.074 404.46C281.701 404.087 281.448 403.611 281.345 403.094C281.242 402.576 281.295 402.04 281.496 401.552C281.698 401.065 282.039 400.648 282.477 400.355C282.915 400.062 283.43 399.906 283.957 399.906C284.663 399.906 285.341 400.187 285.84 400.687C286.34 401.187 286.62 401.866 286.62 402.573Z" fill="#00BCD4"/>
<path d="M295.382 402.573C295.382 403.101 295.226 403.617 294.933 404.055C294.641 404.494 294.225 404.836 293.738 405.038C293.251 405.24 292.716 405.293 292.199 405.19C291.683 405.087 291.208 404.833 290.836 404.46C290.463 404.086 290.21 403.611 290.107 403.094C290.004 402.576 290.057 402.04 290.258 401.552C290.46 401.065 290.801 400.648 291.239 400.355C291.677 400.062 292.192 399.906 292.719 399.906C293.425 399.906 294.103 400.187 294.602 400.687C295.102 401.187 295.382 401.866 295.382 402.573Z" fill="#00BCD4"/>
<path d="M304.131 402.573C304.131 403.101 303.975 403.617 303.682 404.055C303.389 404.494 302.974 404.836 302.487 405.038C302 405.24 301.465 405.293 300.948 405.19C300.432 405.087 299.957 404.833 299.584 404.46C299.212 404.087 298.958 403.611 298.856 403.094C298.753 402.576 298.806 402.04 299.007 401.552C299.209 401.065 299.55 400.648 299.988 400.355C300.426 400.062 300.941 399.906 301.468 399.906C302.174 399.906 302.851 400.187 303.351 400.687C303.85 401.187 304.131 401.866 304.131 402.573Z" fill="#00BCD4"/>
<path d="M312.893 402.573C312.893 403.101 312.737 403.617 312.444 404.055C312.151 404.494 311.735 404.836 311.249 405.038C310.762 405.24 310.227 405.293 309.71 405.19C309.193 405.087 308.719 404.833 308.346 404.46C307.974 404.087 307.72 403.611 307.618 403.094C307.515 402.576 307.568 402.04 307.769 401.552C307.971 401.065 308.312 400.648 308.75 400.355C309.188 400.062 309.703 399.906 310.23 399.906C310.936 399.906 311.613 400.187 312.113 400.687C312.612 401.187 312.893 401.866 312.893 402.573Z" fill="#00BCD4"/>
<path d="M269.042 383.94H267.511V405.228H269.042V383.94Z" fill="#37414F"/>
<path d="M317.021 340.376H179.585V372.175H317.021V340.376Z" fill="#37474F"/>
<path d="M263.597 345.618H185.364V348.299H263.597V345.618Z" fill="#4D5A6D"/>
<path d="M263.597 350.273H185.364V352.954H263.597V350.273Z" fill="#4D5A6D"/>
<path d="M263.597 354.928H185.364V357.61H263.597V354.928Z" fill="#4D5A6D"/>
<path d="M263.597 359.584H185.364V362.265H263.597V359.584Z" fill="#4D5A6D"/>
<path d="M263.597 364.225H185.364V366.906H263.597V364.225Z" fill="#4D5A6D"/>
<path d="M277.858 348.286C277.858 348.814 277.702 349.329 277.409 349.768C277.117 350.207 276.701 350.549 276.214 350.751C275.727 350.953 275.192 351.005 274.675 350.902C274.159 350.799 273.684 350.545 273.312 350.172C272.939 349.799 272.686 349.324 272.583 348.806C272.48 348.289 272.533 347.753 272.734 347.265C272.936 346.778 273.277 346.361 273.715 346.068C274.153 345.775 274.668 345.618 275.195 345.618C275.901 345.618 276.579 345.899 277.078 346.4C277.578 346.9 277.858 347.578 277.858 348.286Z" fill="#00BCD4"/>
<path d="M286.62 348.286C286.62 348.814 286.464 349.329 286.171 349.768C285.879 350.207 285.463 350.549 284.976 350.751C284.489 350.953 283.954 351.005 283.437 350.902C282.921 350.799 282.446 350.545 282.074 350.172C281.701 349.799 281.448 349.324 281.345 348.806C281.242 348.289 281.295 347.753 281.496 347.265C281.698 346.778 282.039 346.361 282.477 346.068C282.915 345.775 283.43 345.618 283.957 345.618C284.663 345.618 285.341 345.899 285.84 346.4C286.34 346.9 286.62 347.578 286.62 348.286Z" fill="#00BCD4"/>
<path d="M295.382 348.286C295.382 348.813 295.226 349.329 294.933 349.768C294.641 350.207 294.225 350.549 293.738 350.75C293.251 350.952 292.716 351.005 292.199 350.902C291.683 350.799 291.208 350.545 290.836 350.172C290.463 349.799 290.21 349.324 290.107 348.806C290.004 348.289 290.057 347.752 290.258 347.265C290.46 346.778 290.801 346.361 291.239 346.068C291.677 345.775 292.192 345.618 292.719 345.618C293.425 345.618 294.103 345.899 294.602 346.4C295.102 346.9 295.382 347.578 295.382 348.286Z" fill="#00BCD4"/>
<path d="M304.131 348.286C304.131 348.814 303.975 349.329 303.682 349.768C303.389 350.207 302.974 350.549 302.487 350.751C302 350.953 301.465 351.005 300.948 350.902C300.432 350.799 299.957 350.545 299.584 350.172C299.212 349.799 298.958 349.324 298.856 348.806C298.753 348.289 298.806 347.753 299.007 347.265C299.209 346.778 299.55 346.361 299.988 346.068C300.426 345.775 300.941 345.618 301.468 345.618C302.174 345.618 302.851 345.899 303.351 346.4C303.85 346.9 304.131 347.578 304.131 348.286Z" fill="#00BCD4"/>
<path d="M312.893 348.286C312.893 348.814 312.737 349.329 312.444 349.768C312.151 350.207 311.735 350.549 311.249 350.751C310.762 350.953 310.227 351.005 309.71 350.902C309.193 350.799 308.719 350.545 308.346 350.172C307.974 349.799 307.72 349.324 307.618 348.806C307.515 348.289 307.568 347.753 307.769 347.265C307.971 346.778 308.312 346.361 308.75 346.068C309.188 345.775 309.703 345.618 310.23 345.618C310.936 345.618 311.613 345.899 312.113 346.4C312.612 346.9 312.893 347.578 312.893 348.286Z" fill="#00BCD4"/>
<path d="M277.858 356.276C277.858 356.803 277.702 357.319 277.409 357.758C277.117 358.196 276.701 358.538 276.214 358.74C275.727 358.942 275.192 358.995 274.675 358.892C274.159 358.789 273.684 358.535 273.312 358.162C272.939 357.789 272.686 357.314 272.583 356.796C272.48 356.279 272.533 355.742 272.734 355.255C272.936 354.767 273.277 354.351 273.715 354.058C274.153 353.764 274.668 353.608 275.195 353.608C275.901 353.608 276.579 353.889 277.078 354.389C277.578 354.89 277.858 355.568 277.858 356.276Z" fill="#00BCD4"/>
<path d="M286.62 356.276C286.62 356.803 286.464 357.319 286.171 357.758C285.879 358.196 285.463 358.538 284.976 358.74C284.489 358.942 283.954 358.995 283.437 358.892C282.921 358.789 282.446 358.535 282.074 358.162C281.701 357.789 281.448 357.314 281.345 356.796C281.242 356.279 281.295 355.742 281.496 355.255C281.698 354.767 282.039 354.351 282.477 354.058C282.915 353.764 283.43 353.608 283.957 353.608C284.663 353.608 285.341 353.889 285.84 354.389C286.34 354.89 286.62 355.568 286.62 356.276Z" fill="#00BCD4"/>
<path d="M295.382 356.276C295.382 356.803 295.226 357.319 294.933 357.758C294.641 358.196 294.225 358.538 293.738 358.74C293.251 358.942 292.716 358.995 292.199 358.892C291.683 358.789 291.208 358.535 290.836 358.162C290.463 357.789 290.21 357.313 290.107 356.796C290.004 356.279 290.057 355.742 290.258 355.255C290.46 354.767 290.801 354.351 291.239 354.057C291.677 353.764 292.192 353.608 292.719 353.608C293.425 353.608 294.103 353.889 294.602 354.389C295.102 354.89 295.382 355.568 295.382 356.276Z" fill="#00BCD4"/>
<path d="M304.131 356.276C304.131 356.803 303.975 357.319 303.682 357.758C303.389 358.196 302.974 358.538 302.487 358.74C302 358.942 301.465 358.995 300.948 358.892C300.432 358.789 299.957 358.535 299.584 358.162C299.212 357.789 298.958 357.314 298.856 356.796C298.753 356.279 298.806 355.742 299.007 355.255C299.209 354.767 299.55 354.351 299.988 354.058C300.426 353.764 300.941 353.608 301.468 353.608C302.174 353.608 302.851 353.889 303.351 354.389C303.85 354.89 304.131 355.568 304.131 356.276Z" fill="#00BCD4"/>
<path d="M312.893 356.276C312.893 356.803 312.737 357.319 312.444 357.758C312.151 358.196 311.735 358.538 311.249 358.74C310.762 358.942 310.227 358.995 309.71 358.892C309.193 358.789 308.719 358.535 308.346 358.162C307.974 357.789 307.72 357.314 307.618 356.796C307.515 356.279 307.568 355.742 307.769 355.255C307.971 354.767 308.312 354.351 308.75 354.058C309.188 353.764 309.703 353.608 310.23 353.608C310.936 353.608 311.613 353.889 312.113 354.389C312.612 354.89 312.893 355.568 312.893 356.276Z" fill="#00BCD4"/>
<path d="M277.858 364.252C277.858 364.78 277.702 365.295 277.409 365.734C277.117 366.173 276.701 366.515 276.214 366.717C275.727 366.919 275.192 366.971 274.675 366.868C274.159 366.765 273.684 366.511 273.312 366.138C272.939 365.765 272.686 365.29 272.583 364.772C272.48 364.255 272.533 363.719 272.734 363.231C272.936 362.744 273.277 362.327 273.715 362.034C274.153 361.741 274.668 361.584 275.195 361.584C275.901 361.584 276.579 361.865 277.078 362.366C277.578 362.866 277.858 363.544 277.858 364.252Z" fill="#00BCD4"/>
<path d="M286.62 364.252C286.62 364.78 286.464 365.295 286.171 365.734C285.879 366.173 285.463 366.515 284.976 366.717C284.489 366.919 283.954 366.971 283.437 366.868C282.921 366.765 282.446 366.511 282.074 366.138C281.701 365.765 281.448 365.29 281.345 364.772C281.242 364.255 281.295 363.719 281.496 363.231C281.698 362.744 282.039 362.327 282.477 362.034C282.915 361.741 283.43 361.584 283.957 361.584C284.663 361.584 285.341 361.865 285.84 362.366C286.34 362.866 286.62 363.544 286.62 364.252Z" fill="#00BCD4"/>
<path d="M295.382 364.252C295.382 364.78 295.226 365.295 294.933 365.734C294.641 366.173 294.225 366.515 293.738 366.717C293.251 366.918 292.716 366.971 292.199 366.868C291.683 366.765 291.208 366.511 290.836 366.138C290.463 365.765 290.21 365.29 290.107 364.772C290.004 364.255 290.057 363.718 290.258 363.231C290.46 362.744 290.801 362.327 291.239 362.034C291.677 361.741 292.192 361.584 292.719 361.584C293.425 361.584 294.103 361.865 294.602 362.366C295.102 362.866 295.382 363.544 295.382 364.252Z" fill="#00BCD4"/>
<path d="M304.131 364.252C304.131 364.78 303.975 365.295 303.682 365.734C303.389 366.173 302.974 366.515 302.487 366.717C302 366.919 301.465 366.971 300.948 366.868C300.432 366.765 299.957 366.511 299.584 366.138C299.212 365.765 298.958 365.29 298.856 364.772C298.753 364.255 298.806 363.719 299.007 363.231C299.209 362.744 299.55 362.327 299.988 362.034C300.426 361.741 300.941 361.584 301.468 361.584C302.174 361.584 302.851 361.865 303.351 362.366C303.85 362.866 304.131 363.544 304.131 364.252Z" fill="#00BCD4"/>
<path d="M312.893 364.252C312.893 364.78 312.737 365.295 312.444 365.734C312.151 366.173 311.735 366.515 311.249 366.717C310.762 366.919 310.227 366.971 309.71 366.868C309.193 366.765 308.719 366.511 308.346 366.138C307.974 365.765 307.72 365.29 307.618 364.772C307.515 364.255 307.568 363.719 307.769 363.231C307.971 362.744 308.312 362.327 308.75 362.034C309.188 361.741 309.703 361.584 310.23 361.584C310.936 361.584 311.613 361.865 312.113 362.366C312.612 362.866 312.893 363.544 312.893 364.252Z" fill="#00BCD4"/>
<path d="M269.042 345.618H267.511V366.906H269.042V345.618Z" fill="#37414F"/>
<path d="M317.021 302.055H179.585V333.854H317.021V302.055Z" fill="#37474F"/>
<path d="M263.597 307.31H185.364V309.991H263.597V307.31Z" fill="#4D5A6D"/>
<path d="M263.597 311.952H185.364V314.633H263.597V311.952Z" fill="#4D5A6D"/>
<path d="M263.597 316.607H185.364V319.288H263.597V316.607Z" fill="#4D5A6D"/>
<path d="M263.597 321.262H185.364V323.943H263.597V321.262Z" fill="#4D5A6D"/>
<path d="M263.597 325.917H185.364V328.598H263.597V325.917Z" fill="#4D5A6D"/>
<path d="M277.858 309.965C277.858 310.492 277.702 311.008 277.409 311.447C277.117 311.885 276.701 312.227 276.214 312.429C275.727 312.631 275.192 312.684 274.675 312.581C274.159 312.478 273.684 312.224 273.312 311.851C272.939 311.478 272.686 311.003 272.583 310.485C272.48 309.968 272.533 309.431 272.734 308.944C272.936 308.456 273.277 308.04 273.715 307.747C274.153 307.453 274.668 307.297 275.195 307.297C275.901 307.297 276.579 307.578 277.078 308.078C277.578 308.579 277.858 309.257 277.858 309.965Z" fill="#00BCD4"/>
<path d="M286.62 309.965C286.62 310.492 286.464 311.008 286.171 311.447C285.879 311.885 285.463 312.227 284.976 312.429C284.489 312.631 283.954 312.684 283.437 312.581C282.921 312.478 282.446 312.224 282.074 311.851C281.701 311.478 281.448 311.003 281.345 310.485C281.242 309.968 281.295 309.431 281.496 308.944C281.698 308.456 282.039 308.04 282.477 307.747C282.915 307.453 283.43 307.297 283.957 307.297C284.663 307.297 285.341 307.578 285.84 308.078C286.34 308.579 286.62 309.257 286.62 309.965Z" fill="#00BCD4"/>
<path d="M295.382 309.965C295.382 310.492 295.226 311.008 294.933 311.447C294.641 311.885 294.225 312.227 293.738 312.429C293.251 312.631 292.716 312.684 292.199 312.581C291.683 312.478 291.208 312.224 290.836 311.851C290.463 311.478 290.21 311.002 290.107 310.485C290.004 309.968 290.057 309.431 290.258 308.944C290.46 308.456 290.801 308.04 291.239 307.746C291.677 307.453 292.192 307.297 292.719 307.297C293.425 307.297 294.103 307.578 294.602 308.078C295.102 308.579 295.382 309.257 295.382 309.965Z" fill="#00BCD4"/>
<path d="M304.131 309.965C304.131 310.492 303.975 311.008 303.682 311.447C303.389 311.885 302.974 312.227 302.487 312.429C302 312.631 301.465 312.684 300.948 312.581C300.432 312.478 299.957 312.224 299.584 311.851C299.212 311.478 298.958 311.003 298.856 310.485C298.753 309.968 298.806 309.431 299.007 308.944C299.209 308.456 299.55 308.04 299.988 307.747C300.426 307.453 300.941 307.297 301.468 307.297C302.174 307.297 302.851 307.578 303.351 308.078C303.85 308.579 304.131 309.257 304.131 309.965Z" fill="#00BCD4"/>
<path d="M312.893 309.965C312.893 310.492 312.737 311.008 312.444 311.447C312.151 311.885 311.735 312.227 311.249 312.429C310.762 312.631 310.227 312.684 309.71 312.581C309.193 312.478 308.719 312.224 308.346 311.851C307.974 311.478 307.72 311.003 307.618 310.485C307.515 309.968 307.568 309.431 307.769 308.944C307.971 308.456 308.312 308.04 308.75 307.747C309.188 307.453 309.703 307.297 310.23 307.297C310.936 307.297 311.613 307.578 312.113 308.078C312.612 308.579 312.893 309.257 312.893 309.965Z" fill="#00BCD4"/>
<path d="M275.208 320.622C276.679 320.622 277.871 319.428 277.871 317.954C277.871 316.481 276.679 315.287 275.208 315.287C273.737 315.287 272.545 316.481 272.545 317.954C272.545 319.428 273.737 320.622 275.208 320.622Z" fill="#00BCD4"/>
<path d="M286.62 317.954C286.62 318.482 286.464 318.998 286.171 319.436C285.879 319.875 285.463 320.217 284.976 320.419C284.489 320.621 283.954 320.674 283.437 320.571C282.921 320.468 282.446 320.214 282.074 319.841C281.701 319.468 281.448 318.992 281.345 318.475C281.242 317.957 281.295 317.421 281.496 316.933C281.698 316.446 282.039 316.029 282.477 315.736C282.915 315.443 283.43 315.287 283.957 315.287C284.663 315.287 285.341 315.568 285.84 316.068C286.34 316.568 286.62 317.247 286.62 317.954Z" fill="#00BCD4"/>
<path d="M292.719 320.622C294.19 320.622 295.382 319.428 295.382 317.954C295.382 316.481 294.19 315.287 292.719 315.287C291.248 315.287 290.056 316.481 290.056 317.954C290.056 319.428 291.248 320.622 292.719 320.622Z" fill="#00BCD4"/>
<path d="M304.131 317.954C304.131 318.482 303.975 318.998 303.682 319.436C303.389 319.875 302.974 320.217 302.487 320.419C302 320.621 301.465 320.674 300.948 320.571C300.432 320.468 299.957 320.214 299.584 319.841C299.212 319.468 298.958 318.992 298.856 318.475C298.753 317.957 298.806 317.421 299.007 316.933C299.209 316.446 299.55 316.029 299.988 315.736C300.426 315.443 300.941 315.287 301.468 315.287C302.174 315.287 302.851 315.568 303.351 316.068C303.85 316.568 304.131 317.247 304.131 317.954Z" fill="#00BCD4"/>
<path d="M312.893 317.954C312.893 318.482 312.737 318.998 312.444 319.436C312.151 319.875 311.735 320.217 311.249 320.419C310.762 320.621 310.227 320.674 309.71 320.571C309.193 320.468 308.719 320.214 308.346 319.841C307.974 319.468 307.72 318.992 307.618 318.475C307.515 317.957 307.568 317.421 307.769 316.933C307.971 316.446 308.312 316.029 308.75 315.736C309.188 315.443 309.703 315.287 310.23 315.287C310.936 315.287 311.613 315.568 312.113 316.068C312.612 316.568 312.893 317.247 312.893 317.954Z" fill="#00BCD4"/>
<path d="M277.858 325.931C277.858 326.458 277.702 326.974 277.409 327.413C277.117 327.852 276.701 328.193 276.214 328.395C275.727 328.597 275.192 328.65 274.675 328.547C274.159 328.444 273.684 328.19 273.312 327.817C272.939 327.444 272.686 326.969 272.583 326.451C272.48 325.934 272.533 325.397 272.734 324.91C272.936 324.422 273.277 324.006 273.715 323.713C274.153 323.42 274.668 323.263 275.195 323.263C275.901 323.263 276.579 323.544 277.078 324.044C277.578 324.545 277.858 325.223 277.858 325.931Z" fill="#00BCD4"/>
<path d="M286.62 325.931C286.62 326.458 286.464 326.974 286.171 327.413C285.879 327.852 285.463 328.193 284.976 328.395C284.489 328.597 283.954 328.65 283.437 328.547C282.921 328.444 282.446 328.19 282.074 327.817C281.701 327.444 281.448 326.969 281.345 326.451C281.242 325.934 281.295 325.397 281.496 324.91C281.698 324.422 282.039 324.006 282.477 323.713C282.915 323.42 283.43 323.263 283.957 323.263C284.663 323.263 285.341 323.544 285.84 324.044C286.34 324.545 286.62 325.223 286.62 325.931Z" fill="#00BCD4"/>
<path d="M295.382 325.931C295.382 326.458 295.226 326.974 294.933 327.413C294.641 327.852 294.225 328.194 293.738 328.395C293.251 328.597 292.716 328.65 292.199 328.547C291.683 328.444 291.208 328.19 290.836 327.817C290.463 327.444 290.21 326.969 290.107 326.451C290.004 325.934 290.057 325.397 290.258 324.91C290.46 324.423 290.801 324.006 291.239 323.713C291.677 323.42 292.192 323.263 292.719 323.263C293.425 323.263 294.103 323.544 294.602 324.045C295.102 324.545 295.382 325.223 295.382 325.931Z" fill="#00BCD4"/>
<path d="M304.131 325.931C304.131 326.458 303.975 326.974 303.682 327.413C303.389 327.852 302.974 328.193 302.487 328.395C302 328.597 301.465 328.65 300.948 328.547C300.432 328.444 299.957 328.19 299.584 327.817C299.212 327.444 298.958 326.969 298.856 326.451C298.753 325.934 298.806 325.397 299.007 324.91C299.209 324.422 299.55 324.006 299.988 323.713C300.426 323.42 300.941 323.263 301.468 323.263C302.174 323.263 302.851 323.544 303.351 324.044C303.85 324.545 304.131 325.223 304.131 325.931Z" fill="#00BCD4"/>
<path d="M312.893 325.931C312.893 326.458 312.737 326.974 312.444 327.413C312.151 327.852 311.735 328.193 311.249 328.395C310.762 328.597 310.227 328.65 309.71 328.547C309.193 328.444 308.719 328.19 308.346 327.817C307.974 327.444 307.72 326.969 307.618 326.451C307.515 325.934 307.568 325.397 307.769 324.91C307.971 324.422 308.312 324.006 308.75 323.713C309.188 323.42 309.703 323.263 310.23 323.263C310.936 323.263 311.613 323.544 312.113 324.044C312.612 324.545 312.893 325.223 312.893 325.931Z" fill="#00BCD4"/>
<path d="M269.042 307.31H267.511V328.598H269.042V307.31Z" fill="#37414F"/>
<path d="M327.497 275.592H167.497V285.94H327.497V275.592Z" fill="#37474F"/>
<path d="M190.057 304.221C194.156 303.983 198.268 304.263 202.296 305.057C198.198 305.294 194.085 305.014 190.057 304.221Z" fill="#37414F"/>
<path d="M219.768 310.748C221.704 311.42 223.59 312.227 225.413 313.161C227.25 314.064 229.019 315.098 230.707 316.255C226.842 314.884 223.167 313.031 219.768 310.738V310.748Z" fill="#37414F"/>
<path d="M196.61 324.957C198.64 321.393 201.116 318.101 203.978 315.162C202.979 316.959 201.852 318.682 200.604 320.317C199.385 321.957 198.05 323.508 196.61 324.957Z" fill="#37414F"/>
<path d="M185 292.033C186.6 292.539 188.158 293.116 189.706 293.714C191.254 294.312 192.802 294.952 194.329 295.601C195.857 296.251 197.425 296.921 198.88 297.663C200.336 298.406 201.894 299.097 203.359 299.901C201.76 299.385 200.201 298.808 198.653 298.21C197.105 297.612 195.557 296.973 194.03 296.323C192.503 295.673 190.934 295.003 189.479 294.261C188.024 293.518 186.476 292.827 185 292.033Z" fill="#37414F"/>
<path d="M221.254 301.169C222.692 300.447 224.191 299.854 225.733 299.396C227.264 298.91 228.835 298.565 230.429 298.365C227.546 299.799 224.446 300.75 221.254 301.179V301.169Z" fill="#37414F"/>
<path d="M206.414 295.952C205.568 294.611 204.804 293.24 204.051 291.827C203.297 290.415 202.575 289.043 201.863 287.631C201.151 286.218 200.47 284.805 199.799 283.362C199.128 281.918 198.509 280.485 197.952 279C198.798 280.34 199.572 281.722 200.325 283.125C201.078 284.527 201.801 285.909 202.513 287.311C203.225 288.713 203.896 290.136 204.577 291.58C205.258 293.023 205.857 294.467 206.414 295.952Z" fill="#37414F"/>
<path d="M227.312 328.566C226.394 327.535 225.537 326.411 224.701 325.308C223.865 324.205 223.06 323.06 222.255 321.926C221.45 320.792 220.697 319.626 219.964 318.441C219.231 317.255 218.499 316.069 217.838 314.842C218.757 315.873 219.613 316.997 220.449 318.1C221.285 319.204 222.1 320.348 222.895 321.482C223.69 322.617 224.453 323.782 225.186 324.968C225.919 326.153 226.652 327.329 227.312 328.566Z" fill="#37414F"/>
</g>
<path d="M186.652 225.4C186.652 225.4 181.168 237.155 181.793 242.367C182.419 247.58 189.469 243.986 195.037 250.397C200.605 256.807 205.043 267.539 228.942 272.973C252.84 278.407 269.377 267.553 275.523 261.016C281.67 254.48 282.465 245.752 291.189 246.596C299.913 247.439 295.15 229.482 292.823 226.339C292.823 226.339 313.43 203.798 314.383 197.418C315.337 191.037 299.181 190.015 278.719 193.022C278.719 193.022 265.288 183.088 238.162 183.695C211.037 184.302 202.134 190.899 202.134 190.899C202.134 190.899 168.694 190.091 165.808 193.847C162.923 197.603 167.094 215.956 186.652 225.4Z" fill="white"/>
<mask id="mask2_4559_63404" style="mask-type:luminance" maskUnits="userSpaceOnUse" x="165" y="182" width="150" height="92">
<path d="M186.749 224.08C186.749 224.08 181.234 235.821 181.846 241.035C182.458 246.249 189.518 242.673 195.069 249.098C200.62 255.523 205.031 266.267 228.915 271.762C252.799 277.258 269.364 266.447 275.527 259.926C281.69 253.406 282.508 244.68 291.23 245.546C299.952 246.412 295.235 228.443 292.916 225.294C292.916 225.294 313.582 202.806 314.552 196.428C315.522 190.05 299.369 188.987 278.899 191.94C278.899 191.94 265.493 181.972 238.367 182.509C211.24 183.046 202.319 189.619 202.319 189.619C202.319 189.619 168.882 188.725 165.987 192.473C163.091 196.222 167.215 214.585 186.749 224.08Z" fill="white"/>
</mask>
<g mask="url(#mask2_4559_63404)">
<path d="M291.193 245.552C299.929 246.408 295.198 228.449 292.879 225.3C292.879 225.3 296.807 221.055 301.317 215.687C292.304 209.087 283.123 204.786 280.129 207.272C273.685 212.612 274.881 224.901 275.632 236.855C276.382 248.809 265.605 252.219 257.075 261.165C248.545 270.11 240.217 257.572 240.217 257.572C234.458 271.552 220.929 259.761 220.929 259.761C209.962 254.462 192.183 240.04 197.402 232.637C202.621 225.234 204.768 217.885 198.748 210.323C192.727 202.762 165.6 193.105 165.6 193.105C163.382 197.816 168.015 215.058 186.748 224.165C186.748 224.165 181.233 235.905 181.845 241.119C182.457 246.334 189.517 242.758 195.068 249.183C200.62 255.608 205.03 266.351 228.914 271.847C252.799 277.343 269.364 266.532 275.527 260.011C281.69 253.49 282.459 244.685 291.193 245.552Z" fill="#D3B9A1"/>
<path opacity="0.5" d="M291.193 245.552C299.929 246.408 295.198 228.449 292.879 225.3C292.879 225.3 296.807 221.055 301.317 215.687C292.304 209.087 283.123 204.786 280.129 207.272C273.685 212.612 274.881 224.901 275.632 236.855C276.382 248.809 265.605 252.219 257.075 261.165C248.545 270.11 240.217 257.572 240.217 257.572C234.458 271.552 220.929 259.761 220.929 259.761C209.962 254.462 192.183 240.04 197.402 232.637C202.621 225.234 204.768 217.885 198.748 210.323C192.727 202.762 165.6 193.105 165.6 193.105C163.382 197.816 168.015 215.058 186.748 224.165C186.748 224.165 181.233 235.905 181.845 241.119C182.457 246.334 189.517 242.758 195.068 249.183C200.62 255.608 205.03 266.351 228.914 271.847C252.799 277.343 269.364 266.532 275.527 260.011C281.69 253.49 282.459 244.685 291.193 245.552Z" fill="white"/>
</g>
<mask id="mask3_4559_63404" style="mask-type:luminance" maskUnits="userSpaceOnUse" x="165" y="183" width="150" height="92">
<path d="M186.631 225.273C186.631 225.273 181.116 237.013 181.728 242.227C182.34 247.442 189.4 243.866 194.951 250.291C200.503 256.716 204.913 267.459 228.797 272.955C252.682 278.451 269.247 267.64 275.41 261.119C281.573 254.598 282.391 245.873 291.112 246.739C299.834 247.605 295.118 229.636 292.799 226.487C292.799 226.487 313.464 203.999 314.434 197.621C315.404 191.243 299.251 190.179 278.782 193.133C278.782 193.133 265.376 183.165 238.249 183.702C211.122 184.238 202.202 190.812 202.202 190.812C202.202 190.812 168.764 189.917 165.869 193.666C162.974 197.415 167.097 215.778 186.631 225.273Z" fill="white"/>
</mask>
<g mask="url(#mask3_4559_63404)">
<path d="M291.075 246.745C299.811 247.601 295.08 229.642 292.761 226.493C292.761 226.493 296.689 222.248 301.199 216.88C292.186 210.28 283.006 205.978 280.012 208.465C273.568 213.805 274.764 226.093 275.514 238.048C276.264 250.002 265.487 253.412 256.957 262.357C248.427 271.303 240.099 258.765 240.099 258.765C234.34 272.745 220.812 260.954 220.812 260.954C209.845 255.655 192.065 241.233 197.285 233.83C202.504 226.427 204.65 219.078 198.63 211.516C192.61 203.954 165.482 194.297 165.482 194.297C163.264 199.009 167.898 216.251 186.631 225.358C186.631 225.358 181.115 237.098 181.727 242.312C182.34 247.526 189.399 243.951 194.951 250.376C200.502 256.801 204.912 267.544 228.797 273.04C252.681 278.535 269.246 267.724 275.409 261.204C281.572 254.683 282.342 245.878 291.075 246.745Z" fill="#D3B9A1"/>
<path opacity="0.5" d="M291.075 246.745C299.811 247.601 295.08 229.642 292.761 226.493C292.761 226.493 296.689 222.248 301.199 216.88C292.186 210.28 283.006 205.978 280.012 208.465C273.568 213.805 274.764 226.093 275.514 238.048C276.264 250.002 265.487 253.412 256.957 262.357C248.427 271.303 240.099 258.765 240.099 258.765C234.34 272.745 220.812 260.954 220.812 260.954C209.845 255.655 192.065 241.233 197.285 233.83C202.504 226.427 204.65 219.078 198.63 211.516C192.61 203.954 165.482 194.297 165.482 194.297C163.264 199.009 167.898 216.251 186.631 225.358C186.631 225.358 181.115 237.098 181.727 242.312C182.34 247.526 189.399 243.951 194.951 250.376C200.502 256.801 204.912 267.544 228.797 273.04C252.681 278.535 269.246 267.724 275.409 261.204C281.572 254.683 282.342 245.878 291.075 246.745Z" fill="white"/>
</g>
<path d="M186.631 225.273C186.631 225.273 181.116 237.013 181.728 242.227C182.34 247.442 189.4 243.866 194.951 250.291C200.503 256.716 204.913 267.459 228.797 272.955C252.681 278.451 269.247 267.64 275.41 261.119C281.573 254.598 282.39 245.873 291.112 246.739C299.834 247.605 295.118 229.636 292.799 226.487C292.799 226.487 313.464 203.999 314.434 197.621C315.404 191.243 299.251 190.179 278.781 193.133C278.781 193.133 265.375 183.165 238.249 183.702C211.122 184.238 202.201 190.812 202.201 190.812C202.201 190.812 168.764 189.917 165.869 193.666C162.973 197.415 167.097 215.778 186.631 225.273Z" stroke="#263238" stroke-width="1.32916" stroke-miterlimit="10"/>
<path d="M286.426 203.157C273.379 209.309 276.349 217.896 280.97 223.114C283.791 226.304 289.05 226.764 292.729 226.549C292.729 226.549 313.395 204.061 314.364 197.683C314.385 197.625 299.423 196.937 286.426 203.157Z" fill="#D3B9A1" stroke="#263238" stroke-width="1.32916" stroke-miterlimit="10"/>
<path d="M165.483 194.213C163.265 198.924 167.898 216.166 186.631 225.273C186.631 225.273 201.865 226.088 198.692 213.257C195.729 201.281 172.515 194.882 165.483 194.213Z" fill="#D3B9A1" stroke="#263238" stroke-width="1.32916" stroke-miterlimit="10"/>
<path d="M237.445 184.292C235.853 184.315 234.319 184.351 232.843 184.393C233.394 192.229 234.262 205.274 237.743 205.61C241.223 205.947 247.204 192.317 250.199 184.647C245.964 184.353 241.704 184.234 237.445 184.292Z" fill="#D3B9A1" stroke="#263238" stroke-miterlimit="10"/>
<path d="M219.579 201.646C223.468 200.44 224.829 190.114 225.282 184.499C221.419 184.927 217.588 185.5 213.81 186.216C214.16 191.506 215.423 202.933 219.579 201.646Z" fill="#D3B9A1" stroke="#263238" stroke-miterlimit="10"/>
<path d="M255.349 200.221C258.763 201.654 263.446 193.694 266.624 187.495C263.037 186.488 259.352 185.655 255.601 185.003C253.829 190.233 251.65 198.67 255.349 200.221Z" fill="#D3B9A1" stroke="#263238" stroke-miterlimit="10"/>
<path d="M332.497 361.592H326.497V382.592H332.497V361.592Z" fill="#37414F"/>
<path fill-rule="evenodd" clip-rule="evenodd" d="M234.37 251C233.066 251.4 230.353 251.833 229.5 251.5C220.531 258.269 214.041 273.434 211 295.269L213.715 295.635C216.979 272.202 224.878 255.604 234.37 251Z" fill="#262E39"/>
<path d="M317.061 426.444C333.283 426.742 349.423 427 364.043 427C394.682 427 418.669 425.902 422.701 421.985C425.773 419 426.113 416.697 424 413C419.714 405.5 385 408.5 373 407.5C363.4 406.7 355.698 394.093 354 389C351 380 339 371 332 371V374C338.5 374 349 382.5 351 389.5C352.401 394.403 359.6 408.4 372 410C387.903 410 419.25 409.5 421.5 414C422.846 416.693 422.5 418 420.854 419.938C418.5 422 416.348 423.476 381.84 424.154C360.528 424.574 335.441 424.113 317.088 423.76L315.835 423.738C308.051 423.599 302.932 423.5 299 423.5C283.96 423.5 276.312 369.227 271.276 340.775C269.985 333.48 268.796 326.764 267.594 321.404L267.594 321.402C267.439 320.72 267.286 320.037 267.132 319.354C266.46 316.376 265.789 313.399 265.082 310.477C263.682 304.606 262.494 298.639 261.34 292.837C261.13 291.78 260.921 290.728 260.711 289.684C257.364 272.469 254.925 257.632 248.5 251C248.052 251.4 244.5 250.5 244.5 250.5C251.438 255.046 254.531 271.773 258.078 290.199L258.261 291.135C259.547 297.687 260.869 304.425 262.476 311.114C263.331 314.664 264.145 318.309 264.959 321.953L264.96 321.958L264.978 322.038C266.09 326.988 267.21 333.197 268.438 340.009C273.683 369.094 280.911 426.173 297.974 426.173C301.884 426.173 307.934 426.281 315.604 426.418L317.061 426.444Z" fill="#262E39"/>
<path d="M220.725 298.237L204.096 297.241L203.498 307.213L220.127 308.208L220.725 298.237Z" fill="#1E2734"/>
<path d="M217.771 294.893L207.398 294.272L207.209 297.438L217.582 298.059L217.771 294.893Z" fill="#262E39"/>
<path d="M209.011 307.581L207.047 307.435L206.591 316.903L208.555 317.05L209.011 307.581Z" fill="#FFC837"/>
<path d="M216.527 308.123L214.577 307.978L214.121 317.446L216.071 317.591L216.527 308.123Z" fill="#FFC837"/>
<path d="M238.766 245.132C236.863 244.86 235.139 243.86 233.957 242.344C233.646 241.949 233.453 241.475 233.398 240.976C233.343 240.477 233.429 239.972 233.646 239.519C234.97 236.964 240.451 237.8 241.341 237.943C242.777 237.892 244.188 238.332 245.34 239.189C245.564 239.406 245.741 239.667 245.859 239.956C245.977 240.245 246.034 240.554 246.027 240.866C245.985 243.691 242.003 244.883 239.672 245.142C239.37 245.175 239.066 245.171 238.766 245.132ZM240.267 239.159C238.183 238.919 235.439 238.995 234.846 240.145C234.828 240.306 234.516 240.784 235.059 241.591C235.596 242.263 236.272 242.809 237.042 243.192C237.811 243.576 238.655 243.787 239.514 243.811C241.585 243.576 244.649 242.602 244.675 240.846C244.683 240.716 244.661 240.586 244.612 240.465C244.562 240.345 244.487 240.237 244.39 240.149C243.47 239.555 242.39 239.255 241.294 239.291L241.174 239.278C240.895 239.232 240.588 239.196 240.267 239.159Z" fill="#D3B9A1"/>
<path d="M240.267 239.159C238.183 238.919 235.439 238.995 234.846 240.145C234.828 240.306 234.516 240.784 235.059 241.591C235.596 242.263 236.272 242.809 237.042 243.192C237.811 243.576 238.655 243.787 239.514 243.811C241.585 243.576 244.649 242.602 244.675 240.846C244.683 240.716 244.661 240.586 244.612 240.465C244.562 240.345 244.487 240.237 244.39 240.149C243.47 239.555 242.39 239.255 241.294 239.291L241.174 239.278C240.895 239.232 240.588 239.196 240.267 239.159Z" fill="#D3B9A1"/>
<path d="M238.766 245.132C236.863 244.86 235.139 243.86 233.957 242.344C233.646 241.949 233.453 241.475 233.398 240.976C233.343 240.477 233.429 239.972 233.646 239.519C234.97 236.964 240.451 237.8 241.341 237.943C242.777 237.892 244.188 238.332 245.34 239.189C245.564 239.406 245.741 239.667 245.859 239.956C245.977 240.245 246.034 240.554 246.027 240.866C245.985 243.691 242.003 244.883 239.672 245.142C239.37 245.175 239.066 245.171 238.766 245.132ZM240.267 239.159C238.183 238.919 235.439 238.995 234.846 240.145C234.828 240.306 234.516 240.784 235.059 241.591C235.596 242.263 236.272 242.809 237.042 243.192C237.811 243.576 238.655 243.787 239.514 243.811C241.585 243.576 244.649 242.602 244.675 240.846C244.683 240.716 244.661 240.586 244.612 240.465C244.562 240.345 244.487 240.237 244.39 240.149C243.47 239.555 242.39 239.255 241.294 239.291L241.174 239.278C240.895 239.232 240.588 239.196 240.267 239.159Z" fill="#263238"/>
<path d="M230.183 252.292C229.937 252.277 229.691 252.249 229.448 252.208C224.153 251.164 223.93 243.827 223.925 243.516C223.922 243.427 223.937 243.339 223.969 243.256C224.001 243.173 224.049 243.098 224.111 243.034C224.172 242.97 224.246 242.92 224.328 242.885C224.41 242.851 224.497 242.833 224.586 242.834C224.764 242.831 224.936 242.899 225.064 243.023C225.191 243.147 225.265 243.316 225.268 243.494C225.268 243.494 225.446 250.054 229.709 250.884C234.34 251.811 237.875 248.279 238.94 244.327C238.975 244.199 239.046 244.085 239.145 243.997C239.244 243.91 239.367 243.854 239.498 243.836C239.628 243.818 239.761 243.839 239.879 243.896C239.998 243.953 240.097 244.044 240.165 244.157C241.297 246.074 245.007 250.997 248.127 250.707C251.726 250.377 253.589 244.432 253.863 242.298C253.873 242.211 253.9 242.126 253.943 242.05C253.986 241.974 254.044 241.907 254.113 241.853C254.182 241.799 254.262 241.76 254.346 241.737C254.431 241.714 254.519 241.708 254.606 241.72C254.783 241.741 254.945 241.831 255.056 241.97C255.167 242.11 255.218 242.288 255.197 242.465C254.975 244.389 253.059 251.614 248.244 252.047C244.728 252.359 241.289 248.144 239.787 246.022C238.259 249.758 234.739 252.818 230.183 252.292Z" fill="#263238"/>
<path d="M211.663 223.694C211.591 223.699 211.519 223.691 211.449 223.67C211.29 223.593 211.168 223.456 211.108 223.29C211.049 223.123 211.058 222.94 211.132 222.78C211.258 222.51 214.321 216.379 225.116 215.512C225.297 215.499 225.476 215.558 225.613 215.677C225.751 215.795 225.835 215.964 225.848 216.145C225.862 216.326 225.802 216.505 225.684 216.642C225.565 216.78 225.397 216.864 225.216 216.877C215.247 217.623 212.37 223.316 212.284 223.36C212.223 223.469 212.132 223.558 212.022 223.617C211.912 223.676 211.788 223.703 211.663 223.694Z" fill="#263238"/>
<path d="M264.038 226.722C263.936 226.711 263.838 226.676 263.752 226.619C263.667 226.562 263.597 226.485 263.548 226.395C258.197 217.506 251.883 218.605 251.62 218.656C251.534 218.673 251.446 218.674 251.361 218.657C251.275 218.64 251.194 218.606 251.121 218.557C251.049 218.509 250.987 218.446 250.938 218.373C250.89 218.3 250.857 218.219 250.841 218.133C250.822 218.046 250.82 217.957 250.836 217.869C250.852 217.782 250.886 217.699 250.935 217.625C250.984 217.551 251.047 217.488 251.121 217.439C251.195 217.39 251.278 217.356 251.366 217.341C251.657 217.279 258.836 215.955 264.703 225.648C264.795 225.8 264.822 225.983 264.78 226.156C264.737 226.328 264.628 226.477 264.475 226.569C264.352 226.669 264.197 226.723 264.038 226.722Z" fill="#263238"/>
<path d="M212.791 240.897L212.644 240.88L200.662 236.547C200.489 236.486 200.348 236.359 200.269 236.194C200.191 236.028 200.181 235.839 200.242 235.666C200.303 235.494 200.43 235.353 200.596 235.274C200.761 235.195 200.95 235.185 201.123 235.247L213.105 239.58C213.272 239.641 213.408 239.765 213.483 239.926C213.558 240.087 213.567 240.271 213.507 240.438C213.459 240.586 213.361 240.712 213.231 240.796C213.1 240.879 212.945 240.915 212.791 240.897Z" fill="#263238"/>
<path d="M205.997 245.692C205.82 245.671 205.658 245.581 205.547 245.441C205.437 245.302 205.386 245.124 205.406 244.946C205.43 244.771 205.521 244.611 205.66 244.501C205.799 244.391 205.975 244.339 206.151 244.356C207.394 244.499 211.928 244.386 211.97 244.377C212.15 244.374 212.323 244.442 212.453 244.566C212.583 244.69 212.659 244.86 212.665 245.039C212.668 245.217 212.6 245.389 212.476 245.517C212.352 245.645 212.182 245.718 212.005 245.721C211.814 245.726 207.333 245.846 205.997 245.692Z" fill="#263238"/>
<path d="M206.134 255.888C205.973 255.871 205.823 255.796 205.712 255.677C205.656 255.607 205.615 255.528 205.591 255.442C205.566 255.357 205.559 255.268 205.569 255.179C205.579 255.091 205.607 255.006 205.65 254.928C205.693 254.851 205.752 254.783 205.821 254.728L212.407 248.922C212.472 248.857 212.55 248.807 212.635 248.773C212.721 248.74 212.812 248.725 212.904 248.728C212.995 248.731 213.085 248.753 213.168 248.792C213.251 248.832 213.325 248.888 213.385 248.956C213.446 249.025 213.491 249.106 213.52 249.193C213.548 249.28 213.558 249.372 213.549 249.464C213.54 249.555 213.513 249.643 213.469 249.724C213.425 249.804 213.365 249.875 213.293 249.931L206.72 255.739C206.64 255.807 206.546 255.855 206.445 255.881C206.343 255.907 206.237 255.909 206.134 255.888Z" fill="#263238"/>
<path d="M264.426 243.238C264.282 243.219 264.148 243.156 264.043 243.056C263.937 242.956 263.866 242.826 263.84 242.683C263.81 242.507 263.851 242.327 263.954 242.181C264.057 242.036 264.214 241.937 264.39 241.907L274.452 240.116C274.542 240.102 274.635 240.106 274.724 240.127C274.813 240.148 274.897 240.187 274.972 240.241C275.046 240.294 275.109 240.362 275.157 240.441C275.205 240.519 275.237 240.606 275.251 240.696C275.266 240.787 275.262 240.879 275.241 240.968C275.22 241.058 275.181 241.142 275.127 241.216C275.073 241.29 275.005 241.353 274.927 241.401C274.849 241.449 274.762 241.481 274.672 241.496L264.621 243.301L264.426 243.238Z" fill="#263238"/>
<path d="M268.949 249.676L262.209 248.249C262.122 248.23 262.039 248.195 261.966 248.144C261.893 248.094 261.831 248.029 261.783 247.954C261.735 247.88 261.702 247.796 261.687 247.709C261.671 247.621 261.673 247.531 261.692 247.445C261.733 247.271 261.84 247.12 261.99 247.023C262.14 246.927 262.322 246.893 262.496 246.928L269.221 248.367C269.308 248.384 269.39 248.418 269.463 248.467C269.537 248.516 269.599 248.579 269.647 248.653C269.696 248.727 269.729 248.809 269.745 248.896C269.76 248.983 269.759 249.072 269.739 249.158C269.702 249.331 269.598 249.482 269.45 249.579C269.302 249.676 269.122 249.711 268.949 249.676Z" fill="#263238"/>
<path d="M266.348 257.905C266.21 257.888 266.08 257.831 265.974 257.74L258.538 250.966C258.407 250.845 258.329 250.677 258.322 250.498C258.314 250.32 258.378 250.146 258.499 250.014C258.62 249.883 258.789 249.805 258.967 249.797C259.146 249.79 259.32 249.854 259.451 249.975L266.874 256.747C266.941 256.806 266.995 256.878 267.033 256.958C267.072 257.038 267.094 257.124 267.099 257.213C267.104 257.302 267.091 257.391 267.062 257.474C267.032 257.558 266.986 257.635 266.927 257.701C266.853 257.777 266.762 257.836 266.661 257.871C266.561 257.907 266.454 257.918 266.348 257.905Z" fill="#263238"/>
<path d="M221.535 231.292C221.532 232.686 223.537 233.817 226.007 233.818C228.471 233.805 230.464 232.665 230.467 231.271C228.783 230.457 224.638 229.32 221.535 231.292Z" fill="#263238"/>
<path fill-rule="evenodd" clip-rule="evenodd" d="M229.863 230L222.161 230C221.764 230.379 221.536 230.821 221.535 231.292C224.638 229.32 228.783 230.457 230.467 231.271C230.468 230.809 230.248 230.374 229.863 230Z" fill="#263238"/>
<path fill-rule="evenodd" clip-rule="evenodd" d="M255.883 229.5L254.008 229.5C254.702 229.707 255.418 230.003 256.146 230.412C256.157 230.094 256.063 229.786 255.883 229.5ZM248.63 229.5L247.37 229.5C247.27 229.701 247.213 229.913 247.208 230.133C247.543 229.92 248.028 229.689 248.63 229.5Z" fill="#263238"/>
<path fill-rule="evenodd" clip-rule="evenodd" d="M251.599 232.804C249.127 232.729 247.171 231.532 247.208 230.133C247.543 229.92 248.028 229.689 248.63 229.5L254.008 229.5C254.702 229.707 255.418 230.003 256.146 230.412C256.098 231.813 254.071 232.879 251.599 232.804Z" fill="#263238"/>
<defs>
<clipPath id="clip0_4559_63404">
<rect width="160" height="141" fill="white" transform="translate(167.497 275.592)"/>
</clipPath>
</defs>
</svg>
