<svg width="507" height="458" viewBox="0 0 507 458" fill="none" xmlns="http://www.w3.org/2000/svg">
<path d="M22.1502 244.947C22.1502 244.947 24.9521 331.926 97.5864 389.905C170.221 447.883 270.898 452.036 352.393 457.554C433.888 463.071 496.477 416.943 505.9 347.235C515.324 277.527 453.143 257.072 419.292 177.705C385.442 98.3386 388.483 72.282 317.034 23.4842C245.585 -25.3135 133.712 4.64498 75.0873 88.2607C16.4625 171.876 22.1502 244.947 22.1502 244.947Z" fill="#D4DAE4"/>
<path opacity="0.7" d="M22.1502 244.947C22.1502 244.947 24.9521 331.926 97.5864 389.905C170.221 447.883 270.898 452.036 352.393 457.554C433.888 463.071 496.477 416.943 505.9 347.235C515.324 277.527 453.143 257.072 419.292 177.705C385.442 98.3386 388.483 72.282 317.034 23.4842C245.585 -25.3135 133.712 4.64498 75.0873 88.2607C16.4625 171.876 22.1502 244.947 22.1502 244.947Z" fill="white"/>
<path d="M55.2104 385.404H44.2183" stroke="#263238" stroke-width="1.32916" stroke-miterlimit="10"/>
<path d="M500.452 385.404H72.5967" stroke="#263238" stroke-width="1.32916" stroke-miterlimit="10"/>
<path d="M390.702 407.713C410.8 407.713 427.091 403.233 427.091 397.707C427.091 392.181 410.8 387.701 390.702 387.701C370.605 387.701 354.313 392.181 354.313 397.707C354.313 403.233 370.605 407.713 390.702 407.713Z" fill="#263238"/>
<path d="M202.627 420.437C164.753 420.437 159.161 414.967 158.61 410.55C158.485 409.63 158.576 408.694 158.875 407.815C159.174 406.937 159.674 406.14 160.335 405.487C170.536 394.787 229.329 399.311 310.68 405.571C322.032 406.445 333.766 407.342 345.8 408.24C428.002 414.344 461.098 413.554 467.935 405.296C469.324 403.608 469.611 401.501 468.845 398.653C465.588 386.744 422.05 386.684 405.562 387.617C405.185 387.637 404.815 387.507 404.533 387.257C404.25 387.006 404.078 386.654 404.054 386.277C404.042 386.09 404.068 385.903 404.13 385.727C404.191 385.551 404.287 385.388 404.412 385.249C404.536 385.11 404.687 384.997 404.856 384.916C405.025 384.836 405.208 384.79 405.395 384.781C411.705 384.41 467.145 381.621 471.587 397.947C472.605 401.705 472.138 404.709 470.126 407.151C462.451 416.463 431.031 417.456 345.596 411.113C333.551 410.215 321.816 409.317 310.465 408.444C232.921 402.459 171.662 397.755 162.394 407.486C162.028 407.834 161.75 408.264 161.583 408.74C161.416 409.217 161.366 409.727 161.436 410.227C161.783 413.052 168.621 419.371 223.701 417.169C254.51 415.972 285.463 412.585 285.774 412.549C286.135 412.534 286.487 412.657 286.761 412.892C287.035 413.127 287.209 413.458 287.248 413.816C287.288 414.175 287.19 414.535 286.974 414.824C286.758 415.113 286.441 415.309 286.086 415.374C285.774 415.374 254.726 418.773 223.821 420.006C215.87 420.293 208.829 420.437 202.627 420.437Z" fill="white" stroke="#263238" stroke-width="1.32916" stroke-miterlimit="10"/>
<path d="M377.172 406.493C400.853 406.493 420.051 387.303 420.051 363.631C420.051 339.96 400.853 320.77 377.172 320.77C353.491 320.77 334.293 339.96 334.293 363.631C334.293 387.303 353.491 406.493 377.172 406.493Z" fill="#00BCDE"/>
<mask id="mask0_4550_61051" style="mask-type:luminance" maskUnits="userSpaceOnUse" x="334" y="320" width="87" height="87">
<path d="M377.172 406.493C400.853 406.493 420.051 387.303 420.051 363.631C420.051 339.96 400.853 320.77 377.172 320.77C353.491 320.77 334.293 339.96 334.293 363.631C334.293 387.303 353.491 406.493 377.172 406.493Z" fill="white"/>
</mask>
<g mask="url(#mask0_4550_61051)">
<path d="M377.172 406.493C384.975 406.498 392.632 404.374 399.316 400.349C406.001 396.325 411.459 390.553 415.104 383.657C418.748 376.76 420.44 368.999 419.998 361.212C419.555 353.424 416.994 345.906 412.591 339.466C412.124 358.138 401.814 385.702 348.195 395.182C356.088 402.459 366.434 406.497 377.172 406.493Z" fill="#068096"/>
<path opacity="0.3" d="M377.172 406.493C384.975 406.498 392.632 404.374 399.316 400.349C406.001 396.325 411.459 390.553 415.104 383.657C418.748 376.76 420.44 368.999 419.998 361.212C419.555 353.424 416.994 345.906 412.591 339.466C412.124 358.138 401.814 385.702 348.195 395.182C356.088 402.459 366.434 406.497 377.172 406.493Z" fill="white"/>
<path d="M398.27 380.436C390.624 373 381.338 367.462 371.161 364.266M398.27 380.436H400.545C405.592 375.435 409.938 369.774 413.465 363.607C393.385 342.398 373.855 344.565 373.855 344.565C373.855 344.565 393.445 342.398 413.525 363.631C414.627 361.657 415.549 359.801 416.303 358.09C407.945 346.384 393.552 338.401 385.829 337.204L384.033 336.773M398.27 380.436C380.632 380.185 367.221 377.456 357.199 373.805C357.846 346.731 367.509 328.694 372.562 321.058C374.172 320.871 375.791 320.775 377.411 320.77C378.884 320.77 380.321 320.854 381.758 320.986M384.033 336.773C381.265 336.27 378.432 336.229 375.651 336.653M384.033 336.773L389.146 322.41C386.73 321.72 384.258 321.243 381.758 320.986M381.758 320.986C378.441 326.336 369.904 343.428 369.904 377.336M407.957 371.71C390.882 355.074 372.035 354.2 372.035 354.2" stroke="#263238" stroke-width="1.32916" stroke-linecap="round" stroke-linejoin="round"/>
<path d="M357.151 373.877C357.798 346.803 367.461 328.766 372.514 321.129C368.56 321.573 364.688 322.564 361.007 324.074C351.932 337.382 346.806 352.983 346.219 369.077C349.735 370.954 353.39 372.558 357.151 373.877Z" stroke="#263238" stroke-width="1.32916" stroke-linecap="round" stroke-linejoin="round"/>
<path d="M361.007 324.038C353.602 327.089 347.198 332.149 342.518 338.647C337.838 345.144 335.068 352.819 334.52 360.807C338.046 364.047 341.979 366.815 346.219 369.041C346.806 352.947 351.932 337.346 361.007 324.038Z" stroke="#263238" stroke-width="1.32916" stroke-linecap="round" stroke-linejoin="round"/>
<path d="M416.243 358.09C417.176 356.029 417.976 353.91 418.638 351.746C416.848 345.642 413.728 340.009 409.502 335.253L406.185 346.312L409.442 335.253C406.797 332.287 403.755 329.701 400.401 327.569L396.749 341.225L400.425 327.628C396.92 325.387 393.103 323.673 389.098 322.542L383.985 336.904C391.816 338.03 403.922 342.638 416.243 358.09Z" stroke="#263238" stroke-width="1.32916" stroke-linecap="round" stroke-linejoin="round"/>
<path d="M379.543 396.726C384.531 393.71 389.29 390.329 393.78 386.612C396.235 384.553 400.737 380.472 400.88 380.472C400.737 380.472 409.334 370.777 412.184 365.714C412.184 365.786 413.453 363.703 413.381 363.631C413.31 363.56 414.411 361.824 414.339 361.752C415.037 360.579 415.646 359.355 416.159 358.09C417.093 356.029 417.892 353.91 418.554 351.746C419.698 355.658 420.278 359.712 420.278 363.787C420.278 364.457 420.278 365.032 420.278 365.654C402.174 391.064 388.224 401.956 379.447 406.732C378.741 406.732 378.022 406.732 377.292 406.732C372.901 406.732 368.536 406.062 364.348 404.745C369.563 402.367 374.637 399.69 379.543 396.726ZM379.543 396.726H379.854" stroke="#263238" stroke-width="1.32916" stroke-linecap="round" stroke-linejoin="round"/>
<path d="M420.278 365.654C402.174 391.064 388.224 401.956 379.519 406.624C390.194 406.087 400.285 401.591 407.822 394.016C415.359 386.44 419.8 376.328 420.278 365.654Z" stroke="#263238" stroke-width="1.32916" stroke-linecap="round" stroke-linejoin="round"/>
<path d="M343.788 390.55C349.101 397.226 356.284 402.168 364.42 404.745C369.635 402.367 374.709 399.69 379.615 396.726C369.389 398.617 353.392 393.925 343.788 390.55Z" stroke="#263238" stroke-width="1.32916" stroke-linecap="round" stroke-linejoin="round"/>
<path d="M379.615 396.726C384.603 393.71 389.362 390.329 393.852 386.612C362.971 389.772 343.92 380.208 335.826 374.775C337.353 380.529 340.065 385.902 343.788 390.55C353.392 393.925 369.389 398.617 379.615 396.726Z" stroke="#263238" stroke-width="1.32916" stroke-linecap="round" stroke-linejoin="round"/>
<path d="M398.27 380.46H400.545C398.522 382.495 396.306 384.553 393.852 386.612C362.971 389.772 343.92 380.208 335.826 374.798C334.881 371.212 334.402 367.519 334.401 363.811C334.401 362.817 334.449 361.848 334.521 360.866C337.131 363.32 342.435 368.802 357.151 373.901C367.222 377.48 380.632 380.208 398.27 380.46ZM398.27 380.46C398.438 380.615 398.605 380.771 398.761 380.939" stroke="#263238" stroke-width="1.32916" stroke-linecap="round" stroke-linejoin="round"/>
</g>
<path d="M377.172 406.493C400.853 406.493 420.051 387.303 420.051 363.631C420.051 339.96 400.853 320.77 377.172 320.77C353.491 320.77 334.293 339.96 334.293 363.631C334.293 387.303 353.491 406.493 377.172 406.493Z" stroke="#263238" stroke-width="1.32916" stroke-linecap="round" stroke-linejoin="round"/>
<path d="M249.299 342.26C222.644 342.26 206.623 318.621 200.936 297.83L200.744 297.1C200.441 296.092 200.344 295.033 200.46 293.987C200.576 292.941 200.902 291.929 201.418 291.011C201.934 290.094 202.63 289.29 203.464 288.647C204.298 288.005 205.253 287.537 206.273 287.272C207.292 287.007 208.354 286.95 209.396 287.105C210.437 287.26 211.437 287.623 212.335 288.173C213.233 288.723 214.01 289.448 214.622 290.306C215.233 291.163 215.664 292.135 215.891 293.163L216.035 293.701C220.357 309.524 232.128 327.609 251.011 326.568C254.562 326.445 258.047 325.577 261.24 324.02C264.433 322.463 267.264 320.253 269.547 317.532C279.904 305.658 284.538 279.841 283.508 266.819C283.411 265.983 283.483 265.136 283.72 264.329C283.957 263.522 284.355 262.771 284.889 262.121C285.423 261.471 286.083 260.935 286.829 260.545C287.575 260.156 288.392 259.921 289.231 259.854C290.07 259.787 290.914 259.89 291.713 260.156C292.511 260.423 293.247 260.848 293.878 261.405C294.508 261.962 295.02 262.641 295.382 263.401C295.744 264.16 295.949 264.985 295.985 265.825C297.183 280.32 295.602 311.475 281.341 327.813C277.691 332.109 273.19 335.603 268.123 338.075C263.055 340.547 257.531 341.943 251.897 342.176C251.023 342.236 250.149 342.26 249.299 342.26Z" fill="white"/>
<mask id="mask1_4550_61051" style="mask-type:luminance" maskUnits="userSpaceOnUse" x="200" y="259" width="97" height="84">
<path d="M249.299 342.26C222.644 342.26 206.623 318.621 200.936 297.83L200.744 297.1C200.441 296.092 200.344 295.033 200.46 293.987C200.576 292.941 200.902 291.929 201.418 291.011C201.934 290.094 202.63 289.29 203.464 288.647C204.298 288.005 205.253 287.537 206.273 287.272C207.292 287.007 208.354 286.95 209.396 287.105C210.437 287.26 211.437 287.623 212.335 288.173C213.233 288.723 214.01 289.448 214.622 290.306C215.233 291.163 215.664 292.135 215.891 293.163L216.035 293.701C220.357 309.524 232.128 327.609 251.011 326.568C254.562 326.445 258.047 325.577 261.24 324.02C264.433 322.463 267.264 320.253 269.547 317.532C279.904 305.658 284.538 279.841 283.508 266.819C283.411 265.983 283.483 265.136 283.72 264.329C283.957 263.522 284.355 262.771 284.889 262.121C285.423 261.471 286.083 260.935 286.829 260.545C287.575 260.156 288.392 259.921 289.231 259.854C290.07 259.787 290.914 259.89 291.713 260.156C292.511 260.423 293.247 260.848 293.878 261.405C294.508 261.962 295.02 262.641 295.382 263.401C295.744 264.16 295.949 264.985 295.985 265.825C297.183 280.32 295.602 311.475 281.341 327.813C277.691 332.109 273.19 335.603 268.123 338.075C263.055 340.547 257.531 341.943 251.897 342.176C251.023 342.236 250.149 342.26 249.299 342.26Z" fill="white"/>
</mask>
<g mask="url(#mask1_4550_61051)">
<path d="M289.244 260.08C287.59 260.214 286.056 261 284.981 262.263C283.906 263.527 283.376 265.165 283.508 266.819C284.011 273.174 283.161 282.57 280.958 291.954C284.105 291.821 287.251 292.226 290.262 293.151C289.549 302.155 286.386 310.794 281.113 318.13C269.487 334.276 252.053 339.435 238.486 337.496C232.415 336.634 225.458 333.45 219.603 330.183C227.548 337.927 238.201 342.269 249.299 342.284C250.149 342.284 251.023 342.284 251.897 342.212C257.531 341.979 263.055 340.583 268.123 338.111C273.19 335.639 277.691 332.145 281.341 327.849C295.602 311.511 297.135 280.356 295.985 265.861C295.926 265.038 295.705 264.234 295.333 263.497C294.961 262.759 294.447 262.103 293.821 261.566C293.194 261.028 292.466 260.62 291.681 260.365C290.895 260.11 290.067 260.013 289.244 260.08Z" fill="#D3B9A1"/>
<path opacity="0.5" d="M289.244 260.08C287.59 260.214 286.056 261 284.981 262.263C283.906 263.527 283.376 265.165 283.508 266.819C284.011 273.174 283.161 282.57 280.958 291.954C284.105 291.821 287.251 292.226 290.262 293.151C289.549 302.155 286.386 310.794 281.113 318.13C269.487 334.276 252.053 339.435 238.486 337.496C232.415 336.634 225.458 333.45 219.603 330.183C227.548 337.927 238.201 342.269 249.299 342.284C250.149 342.284 251.023 342.284 251.897 342.212C257.531 341.979 263.055 340.583 268.123 338.111C273.19 335.639 277.691 332.145 281.341 327.849C295.602 311.511 297.135 280.356 295.985 265.861C295.926 265.038 295.705 264.234 295.333 263.497C294.961 262.759 294.447 262.103 293.821 261.566C293.194 261.028 292.466 260.62 291.681 260.365C290.895 260.11 290.067 260.013 289.244 260.08Z" fill="white"/>
</g>
<path d="M249.299 342.26C222.644 342.26 206.623 318.621 200.936 297.83L200.744 297.1C200.441 296.092 200.344 295.033 200.46 293.987C200.576 292.941 200.902 291.929 201.418 291.011C201.934 290.094 202.63 289.29 203.464 288.647C204.298 288.005 205.253 287.537 206.273 287.272C207.292 287.007 208.354 286.95 209.396 287.105C210.437 287.26 211.437 287.623 212.335 288.173C213.233 288.723 214.01 289.448 214.622 290.306C215.233 291.163 215.664 292.135 215.891 293.163L216.035 293.701C220.357 309.524 232.128 327.609 251.011 326.568C254.562 326.445 258.047 325.577 261.24 324.02C264.433 322.463 267.264 320.253 269.547 317.532C279.904 305.658 284.538 279.841 283.508 266.819C283.411 265.983 283.483 265.136 283.72 264.329C283.957 263.522 284.355 262.771 284.889 262.121C285.423 261.471 286.083 260.935 286.829 260.545C287.575 260.156 288.392 259.921 289.231 259.854C290.07 259.787 290.914 259.89 291.713 260.156C292.511 260.423 293.247 260.848 293.878 261.405C294.508 261.962 295.02 262.641 295.382 263.401C295.744 264.16 295.949 264.985 295.985 265.825C297.183 280.32 295.602 311.475 281.341 327.813C277.691 332.109 273.19 335.603 268.123 338.075C263.055 340.547 257.531 341.943 251.897 342.176C251.023 342.236 250.149 342.26 249.299 342.26Z" stroke="#263238" stroke-width="1.32916" stroke-linecap="round" stroke-linejoin="round"/>
<path d="M233.924 326.066C234.558 323.133 227.542 327.717 221.662 331.99C223.837 333.827 226.178 335.458 228.655 336.862C230.751 333.45 233.313 328.89 233.924 326.066Z" fill="#D3B9A1" stroke="#263238" stroke-width="1.32916" stroke-linecap="round" stroke-linejoin="round"/>
<path d="M249.299 342.26C250.149 342.26 251.023 342.26 251.897 342.188C254.441 342.045 256.968 341.689 259.453 341.123C256.148 336.814 251.598 331.117 250.292 330.686C248.796 330.183 245.91 337.52 244.305 341.973C245.963 342.166 247.63 342.262 249.299 342.26Z" fill="#D3B9A1" stroke="#263238" stroke-width="1.32916" stroke-linecap="round" stroke-linejoin="round"/>
<path d="M216.035 293.701L215.891 293.163C215.664 292.135 215.233 291.163 214.622 290.306C214.01 289.448 213.233 288.723 212.335 288.173C211.437 287.623 210.437 287.26 209.396 287.105C208.354 286.95 207.292 287.007 206.273 287.272C205.253 287.537 204.298 288.005 203.464 288.647C202.63 289.29 201.934 290.094 201.418 291.011C200.902 291.929 200.576 292.941 200.46 293.987C200.344 295.033 200.441 296.092 200.744 297.1L200.936 297.831C202.932 305.132 205.999 312.097 210.036 318.501L224.297 311.715C220.557 306.213 217.765 300.124 216.035 293.701Z" fill="#D3B9A1" stroke="#263238" stroke-width="1.32916" stroke-linecap="round" stroke-linejoin="round"/>
<path d="M281.341 327.813C282.437 326.545 283.453 325.21 284.382 323.815C279.856 322.271 273.079 320.141 270.564 320.368C267.583 320.644 271.63 330.219 273.714 334.731C276.518 332.731 279.078 330.41 281.341 327.813Z" fill="#D3B9A1" stroke="#263238" stroke-width="1.32916" stroke-linecap="round" stroke-linejoin="round"/>
<path d="M281.592 302.235C281.113 303.193 286.969 307.454 290.92 310.195C292.174 306.466 293.182 302.66 293.938 298.8C289.148 299.758 282.059 301.302 281.592 302.235Z" fill="#D3B9A1" stroke="#263238" stroke-width="1.32916" stroke-linecap="round" stroke-linejoin="round"/>
<path d="M295.877 284.533C296.141 281.122 296.273 277.866 296.285 274.874C292.165 277.136 287.28 280.272 287.28 282.331C287.28 284.389 291.854 284.641 295.877 284.533Z" fill="#D3B9A1" stroke="#263238" stroke-width="1.32916" stroke-linecap="round" stroke-linejoin="round"/>
<path d="M231.409 191.929C231.409 191.929 219.783 225.585 226.045 251.774C227.9 259.437 231.501 266.569 236.566 272.612C241.632 278.656 248.026 283.448 255.25 286.616C255.25 286.616 238.259 292.6 242.078 301.804C245.898 311.009 260.542 305.084 265.32 302.104C270.097 299.123 276.096 290.194 276.935 284.234C277.467 281.188 277.668 278.094 277.533 275.006C277.533 275.006 296.895 272.923 310.007 262.199C310.007 262.199 321.634 271.427 329.979 269.643C338.325 267.86 350.24 252.959 349.042 239.565C347.845 226.172 340.121 226.184 335.404 228.219C332.955 229.144 330.721 230.562 328.842 232.384C328.842 232.384 335.691 224.006 328.842 212.431C326.82 209.037 324.052 206.146 320.748 203.979C317.443 201.812 313.688 200.425 309.767 199.924C309.767 199.924 306.175 180.857 295.47 173.712C284.766 166.566 246.604 159.169 231.409 191.929Z" fill="white"/>
<mask id="mask2_4550_61051" style="mask-type:luminance" maskUnits="userSpaceOnUse" x="224" y="167" width="126" height="140">
<path d="M231.409 191.929C231.409 191.929 219.783 225.585 226.045 251.774C227.9 259.437 231.501 266.569 236.566 272.612C241.632 278.656 248.026 283.448 255.25 286.616C255.25 286.616 238.259 292.6 242.078 301.804C245.898 311.009 260.542 305.084 265.32 302.104C270.097 299.123 276.096 290.194 276.935 284.234C277.467 281.188 277.668 278.094 277.533 275.006C277.533 275.006 296.895 272.923 310.007 262.199C310.007 262.199 321.634 271.427 329.979 269.643C338.325 267.86 350.24 252.959 349.042 239.565C347.845 226.172 340.121 226.184 335.404 228.219C332.955 229.144 330.721 230.562 328.842 232.384C328.842 232.384 335.691 224.006 328.842 212.431C326.82 209.037 324.052 206.146 320.748 203.979C317.443 201.812 313.688 200.425 309.767 199.924C309.767 199.924 306.175 180.857 295.47 173.712C284.766 166.566 246.604 159.169 231.409 191.929Z" fill="white"/>
</mask>
<g mask="url(#mask2_4550_61051)">
<path d="M319.933 203.503C314.405 212.719 306.756 220.484 297.622 226.151C288.487 231.817 278.131 235.222 267.415 236.082C243.707 238.165 230.415 233.497 224.309 230.253C225.05 217.231 227.464 204.358 231.493 191.952C246.688 159.193 284.825 166.638 295.554 173.783C306.283 180.929 309.851 199.996 309.851 199.996C313.421 200.443 316.856 201.638 319.933 203.503ZM335.404 228.219C332.955 229.144 330.721 230.562 328.842 232.384C330.292 230.385 331.248 228.072 331.632 225.633C315.527 233.653 316.784 250.768 314.784 250.768C312.318 250.768 311.096 242.162 311.096 242.162C311.096 242.162 308.019 254.455 289.543 263.072C271.067 271.69 250.173 264.916 250.173 264.916C250.173 264.916 254.483 274.754 243.407 273.521C240.299 273.224 237.319 272.136 234.75 270.362C240.061 277.44 247.115 283.023 255.226 286.568C255.226 286.568 238.234 292.552 242.054 301.756C245.874 310.961 260.53 305.036 265.296 302.056C270.061 299.075 276.072 290.146 276.911 284.186C277.443 281.14 277.644 278.046 277.509 274.958C277.509 274.958 296.871 272.875 309.983 262.151C309.983 262.151 321.61 271.379 329.955 269.596C338.301 267.812 350.215 252.911 349.018 239.517C347.821 226.124 340.121 226.184 335.404 228.219Z" fill="#D3B9A1"/>
<path opacity="0.5" d="M319.933 203.503C314.405 212.719 306.756 220.484 297.622 226.151C288.487 231.817 278.131 235.222 267.415 236.082C243.707 238.165 230.415 233.497 224.309 230.253C225.05 217.231 227.464 204.358 231.493 191.952C246.688 159.193 284.825 166.638 295.554 173.783C306.283 180.929 309.851 199.996 309.851 199.996C313.421 200.443 316.856 201.638 319.933 203.503ZM335.404 228.219C332.955 229.144 330.721 230.562 328.842 232.384C330.292 230.385 331.248 228.072 331.632 225.633C315.527 233.653 316.784 250.768 314.784 250.768C312.318 250.768 311.096 242.162 311.096 242.162C311.096 242.162 308.019 254.455 289.543 263.072C271.067 271.69 250.173 264.916 250.173 264.916C250.173 264.916 254.483 274.754 243.407 273.521C240.299 273.224 237.319 272.136 234.75 270.362C240.061 277.44 247.115 283.023 255.226 286.568C255.226 286.568 238.234 292.552 242.054 301.756C245.874 310.961 260.53 305.036 265.296 302.056C270.061 299.075 276.072 290.146 276.911 284.186C277.443 281.14 277.644 278.046 277.509 274.958C277.509 274.958 296.871 272.875 309.983 262.151C309.983 262.151 321.61 271.379 329.955 269.596C338.301 267.812 350.215 252.911 349.018 239.517C347.821 226.124 340.121 226.184 335.404 228.219Z" fill="white"/>
<path d="M277.593 275.029C271.167 275.2 264.787 273.896 258.944 271.218C253.1 268.539 247.949 264.557 243.886 259.577" stroke="#263238" stroke-width="1.32916" stroke-linecap="round" stroke-linejoin="round"/>
</g>
<path d="M231.409 191.929C231.409 191.929 219.783 225.585 226.045 251.774C227.9 259.437 231.501 266.569 236.566 272.612C241.632 278.656 248.026 283.448 255.25 286.616C255.25 286.616 238.259 292.6 242.078 301.804C245.898 311.009 260.542 305.084 265.32 302.104C270.097 299.123 276.096 290.194 276.935 284.234C277.467 281.188 277.668 278.094 277.533 275.006C277.533 275.006 296.895 272.923 310.007 262.199C310.007 262.199 321.634 271.427 329.979 269.643C338.325 267.86 350.24 252.959 349.042 239.565C347.845 226.172 340.121 226.184 335.404 228.219C332.955 229.144 330.721 230.562 328.842 232.384C328.842 232.384 335.691 224.006 328.842 212.431C326.82 209.037 324.052 206.146 320.748 203.979C317.443 201.812 313.688 200.425 309.767 199.924C309.767 199.924 306.175 180.857 295.47 173.712C284.766 166.566 246.604 159.169 231.409 191.929Z" stroke="#263238" stroke-width="1.32916" stroke-linecap="round" stroke-linejoin="round"/>
<path d="M340.325 237.914C339.595 240.092 337.595 241.397 335.871 240.81C334.146 240.224 333.356 237.985 334.086 235.807C334.817 233.629 336.817 232.324 338.541 232.91C340.265 233.497 341.067 235.735 340.325 237.914Z" fill="white" stroke="#263238" stroke-width="1.32916" stroke-linecap="round" stroke-linejoin="round"/>
<path d="M346.491 241.791C345.761 243.97 343.761 245.274 342.037 244.688C340.313 244.102 339.511 241.863 340.253 239.685C340.995 237.507 342.983 236.202 344.707 236.788C346.432 237.375 347.234 239.613 346.491 241.791Z" fill="white" stroke="#263238" stroke-width="1.32916" stroke-linecap="round" stroke-linejoin="round"/>
<path d="M347.809 247.597C347.57 247.997 347.222 248.322 346.805 248.533C346.389 248.744 345.922 248.832 345.457 248.788C344.992 248.744 344.55 248.569 344.181 248.284C343.812 247.998 343.531 247.614 343.372 247.176C343.212 246.737 343.181 246.262 343.28 245.807C343.38 245.351 343.607 244.933 343.935 244.601C344.263 244.269 344.678 244.037 345.133 243.932C345.588 243.826 346.063 243.852 346.503 244.006C347.139 244.324 347.629 244.873 347.872 245.541C348.115 246.209 348.092 246.945 347.809 247.597Z" fill="white" stroke="#263238" stroke-width="1.32916" stroke-linecap="round" stroke-linejoin="round"/>
<path d="M339.942 255.568C337.786 259.458 333.476 261.181 330.303 259.422C327.13 257.662 326.315 253.102 328.471 249.212C330.626 245.322 334.937 243.599 338.11 245.358C341.283 247.118 342.097 251.678 339.942 255.568Z" fill="white" stroke="#263238" stroke-width="1.32916" stroke-linecap="round" stroke-linejoin="round"/>
<path d="M255.25 286.639C259.264 288.507 263.826 288.827 268.062 287.537" stroke="#263238" stroke-width="1.32916" stroke-linecap="round" stroke-linejoin="round"/>
<path d="M242.138 301.828C242.138 301.828 243.335 296.765 250.771 293.198" stroke="#263238" stroke-width="1.32916" stroke-linecap="round" stroke-linejoin="round"/>
<path d="M249.586 306.305C249.586 306.305 252.567 299.123 257.632 295.88" stroke="#263238" stroke-width="1.32916" stroke-linecap="round" stroke-linejoin="round"/>
<path d="M42.3558 196.599V171.391L105.664 71.8142H127.433V106.707H114.549L74.6393 169.765V170.947H164.604V196.599H42.3558ZM115.142 223.212V188.911L115.734 177.748V71.8142H145.796V223.212H115.142Z" fill="#263238"/>
<path d="M360.864 196.599V171.391L424.173 71.8142H445.942V106.707H433.058L393.148 169.765V170.947H483.112V196.599H360.864ZM433.65 223.212V188.911L434.243 177.748V71.8142H464.305V223.212H433.65Z" fill="#263238"/>
<path fill-rule="evenodd" clip-rule="evenodd" d="M222.821 219.22C233.952 225.43 247.238 228.559 262.678 228.609C278.118 228.609 291.373 225.504 302.445 219.294C313.516 213.084 322.014 204.09 327.939 192.312C333.923 180.533 336.916 166.339 336.916 149.731C336.975 133.221 334.013 119.175 328.028 107.594C322.044 95.963 313.486 87.092 302.355 80.9809C291.284 74.8697 278.058 71.8142 262.678 71.8142C247.297 71.8142 234.042 74.8697 222.91 80.9809C211.839 87.0427 203.311 95.889 197.327 107.52C191.402 119.151 188.44 133.221 188.44 149.731C188.38 166.29 191.312 180.459 197.237 192.238C203.221 204.016 211.749 213.011 222.821 219.22ZM262.678 207.064C290.606 207.064 313.246 181.61 313.246 150.211C313.246 118.812 290.606 95.7523 262.678 95.7523C234.749 95.7523 212.109 118.812 212.109 150.211C212.109 181.61 234.749 207.064 262.678 207.064Z" fill="#263238"/>
<mask id="mask3_4550_61051" style="mask-type:luminance" maskUnits="userSpaceOnUse" x="284" y="162" width="45" height="73">
<path d="M308.595 162.645C308.595 162.645 322.772 178.899 326.304 196.517C329.837 214.136 328.939 226.188 324.029 231.156C319.12 236.123 313.624 234.878 310.247 231.012C306.87 227.146 310.247 212.173 310.247 212.173C310.247 212.173 303.829 198.731 295.16 189.707C286.491 180.682 284.85 179.354 284.85 179.354C284.85 179.354 296.645 162.92 308.595 162.645Z" fill="white"/>
</mask>
<g mask="url(#mask3_4550_61051)">
<path d="M308.595 162.645C296.621 162.92 284.791 179.401 284.791 179.401C284.791 179.401 286.419 180.742 295.1 189.755C296.724 191.464 298.251 193.262 299.674 195.141C304.205 187.491 310.678 181.173 318.438 176.828C315.582 171.819 312.289 167.073 308.595 162.645Z" fill="#D3B9A1"/>
<path opacity="0.5" d="M308.595 162.645C296.621 162.92 284.791 179.401 284.791 179.401C284.791 179.401 286.419 180.742 295.1 189.755C296.724 191.464 298.251 193.262 299.674 195.141C304.205 187.491 310.678 181.173 318.438 176.828C315.582 171.819 312.289 167.073 308.595 162.645Z" fill="white"/>
</g>
<path d="M308.532 162.645C308.532 162.645 322.709 178.899 326.241 196.517C329.774 214.136 328.876 226.188 323.966 231.156C319.057 236.123 313.561 234.878 310.184 231.012C306.807 227.146 310.184 212.173 310.184 212.173C310.184 212.173 303.766 198.731 295.097 189.707C286.428 180.682 284.787 179.354 284.787 179.354C284.787 179.354 296.582 162.92 308.532 162.645Z" fill="white"/>
<path d="M210.524 171.322C210.524 171.322 198.012 188.893 196.227 206.763C194.443 224.633 196.527 236.542 201.891 241.018C207.255 245.495 212.608 243.699 215.589 239.522C218.571 235.345 213.805 220.755 213.805 220.755C213.805 220.755 218.87 206.763 226.617 196.936C234.365 187.11 235.849 185.613 235.849 185.613C235.849 185.613 222.439 170.425 210.524 171.322Z" fill="white"/>
<mask id="mask4_4550_61051" style="mask-type:luminance" maskUnits="userSpaceOnUse" x="284" y="162" width="45" height="73">
<path d="M308.532 162.645C308.532 162.645 322.709 178.899 326.241 196.517C329.774 214.136 328.876 226.188 323.966 231.156C319.057 236.123 313.561 234.878 310.184 231.012C306.807 227.146 310.184 212.173 310.184 212.173C310.184 212.173 303.766 198.731 295.097 189.707C286.428 180.682 284.787 179.354 284.787 179.354C284.787 179.354 296.582 162.92 308.532 162.645Z" fill="white"/>
</mask>
<g mask="url(#mask4_4550_61051)">
<path d="M308.532 162.645C296.558 162.92 284.728 179.401 284.728 179.401C284.728 179.401 286.356 180.742 295.037 189.755C296.661 191.464 298.188 193.262 299.611 195.141C304.142 187.491 310.615 181.173 318.375 176.828C315.519 171.819 312.226 167.073 308.532 162.645Z" fill="#D3B9A1"/>
<path opacity="0.5" d="M308.532 162.645C296.558 162.92 284.728 179.401 284.728 179.401C284.728 179.401 286.356 180.742 295.037 189.755C296.661 191.464 298.188 193.262 299.611 195.141C304.142 187.491 310.615 181.173 318.375 176.828C315.519 171.819 312.226 167.073 308.532 162.645Z" fill="white"/>
</g>
<path d="M308.595 162.645C308.595 162.645 322.772 178.899 326.304 196.517C329.837 214.136 328.939 226.188 324.029 231.156C319.12 236.123 313.624 234.878 310.247 231.012C306.87 227.146 310.247 212.173 310.247 212.173C310.247 212.173 303.829 198.731 295.16 189.707C286.491 180.682 284.85 179.354 284.85 179.354C284.85 179.354 296.645 162.92 308.595 162.645Z" stroke="#263238" stroke-width="1.32916" stroke-linecap="round" stroke-linejoin="round"/>
<path d="M209.351 156.122C209.351 156.122 205.663 168.558 207.052 173.62C208.441 178.683 214.883 174.087 221.337 179.605C227.791 185.123 233.766 195.081 258.205 196.924C282.644 198.767 297.396 185.589 302.509 178.217C307.622 170.844 307.119 162.094 315.872 161.639C324.625 161.185 317.261 144.129 314.495 141.364C314.495 141.364 331.546 116.025 331.546 109.574C331.546 103.123 315.417 104.499 295.624 110.496C295.624 110.496 280.872 102.656 254.134 107.264C227.396 111.872 219.565 119.712 219.565 119.712C219.565 119.712 186.373 123.853 184.074 127.994C181.775 132.136 188.612 149.67 209.351 156.122Z" fill="white"/>
<mask id="mask5_4550_61051" style="mask-type:luminance" maskUnits="userSpaceOnUse" x="195" y="170" width="41" height="73">
<path d="M210.524 170.126C210.524 170.126 198.012 187.696 196.227 205.566C194.443 223.436 196.527 235.345 201.891 239.821C207.255 244.298 212.608 242.502 215.589 238.325C218.571 234.148 213.805 219.558 213.805 219.558C213.805 219.558 218.87 205.566 226.617 195.739C234.365 185.913 235.849 184.417 235.849 184.417C235.849 184.417 222.439 169.228 210.524 170.126Z" fill="white"/>
</mask>
<g mask="url(#mask5_4550_61051)">
<path d="M210.524 170.126C207.794 174.158 205.372 178.391 203.28 182.789C209.267 185.183 218.547 190.09 224.438 198.78C225.157 197.738 225.899 196.709 226.665 195.739C234.413 185.913 235.897 184.417 235.897 184.417C235.897 184.417 222.439 169.228 210.524 170.126Z" fill="#D3B9A1"/>
<path opacity="0.5" d="M210.524 170.126C207.794 174.158 205.372 178.391 203.28 182.789C209.267 185.183 218.547 190.09 224.438 198.78C225.157 197.738 225.899 196.709 226.665 195.739C234.413 185.913 235.897 184.417 235.897 184.417C235.897 184.417 222.439 169.228 210.524 170.126Z" fill="white"/>
</g>
<mask id="mask6_4550_61051" style="mask-type:luminance" maskUnits="userSpaceOnUse" x="183" y="104" width="149" height="92">
<path d="M209.351 154.925C209.351 154.925 205.663 167.361 207.052 172.424C208.441 177.486 214.883 172.89 221.337 178.408C227.791 183.926 233.766 193.884 258.205 195.727C282.644 197.57 297.396 184.393 302.509 177.02C307.622 169.647 307.119 160.897 315.872 160.443C324.625 159.988 317.261 142.932 314.495 140.167C314.495 140.167 331.546 114.829 331.546 108.377C331.546 101.926 315.417 103.302 295.624 109.299C295.624 109.299 280.872 101.459 254.134 106.067C227.396 110.675 219.565 118.515 219.565 118.515C219.565 118.515 186.373 122.656 184.074 126.798C181.775 130.939 188.612 148.473 209.351 154.925Z" fill="white"/>
</mask>
<g mask="url(#mask6_4550_61051)">
<path d="M315.836 160.455C324.601 159.988 317.225 142.944 314.459 140.179C314.459 140.179 317.704 135.391 321.356 129.407C311.453 124.236 301.73 121.364 299.144 124.272C293.576 130.52 296.606 142.489 299.144 154.195C301.683 165.901 291.541 170.892 284.452 181.017C277.363 191.143 267.245 180 267.245 180C263.653 194.686 248.506 185.063 248.506 185.063C236.867 181.472 217.122 169.886 221.169 161.783C225.217 153.68 226.234 146.092 219.146 139.521C212.057 132.95 183.787 127.48 183.787 127.48C182.302 132.471 189.474 148.821 209.363 155.009C209.363 155.009 205.675 167.445 207.064 172.507C208.453 177.57 214.895 172.974 221.349 178.492C227.803 184.01 233.778 193.968 258.217 195.811C282.656 197.654 297.408 184.476 302.521 177.104C307.634 169.731 307.071 160.909 315.836 160.455Z" fill="#D3B9A1"/>
<path opacity="0.5" d="M315.836 160.455C324.601 159.988 317.225 142.944 314.459 140.179C314.459 140.179 317.704 135.391 321.356 129.407C311.453 124.236 301.73 121.364 299.144 124.272C293.576 130.52 296.606 142.489 299.144 154.195C301.683 165.901 291.541 170.892 284.452 181.017C277.363 191.143 267.245 180 267.245 180C263.653 194.686 248.506 185.063 248.506 185.063C236.867 181.472 217.122 169.886 221.169 161.783C225.217 153.68 226.234 146.092 219.146 139.521C212.057 132.95 183.787 127.48 183.787 127.48C182.302 132.471 189.474 148.821 209.363 155.009C209.363 155.009 205.675 167.445 207.064 172.507C208.453 177.57 214.895 172.974 221.349 178.492C227.803 184.01 233.778 193.968 258.217 195.811C282.656 197.654 297.408 184.476 302.521 177.104C307.634 169.731 307.071 160.909 315.836 160.455Z" fill="white"/>
<path d="M279.782 163.231C280.129 166.152 273.639 169.3 265.318 170.269C256.996 171.239 249.955 169.659 249.608 166.679C249.26 163.698 255.75 160.622 264.084 159.653C272.418 158.683 279.447 160.323 279.782 163.231Z" fill="#D3B9A1"/>
<path opacity="0.5" d="M279.782 163.231C280.129 166.152 273.639 169.3 265.318 170.269C256.996 171.239 249.955 169.659 249.608 166.679C249.26 163.698 255.75 160.622 264.084 159.653C272.418 158.683 279.447 160.323 279.782 163.231Z" fill="white"/>
</g>
<path d="M307.864 194.734C307.565 191.61 312.917 184.931 320.94 181.472C322.327 184.262 323.527 187.141 324.532 190.09C321.375 190.97 318.353 192.279 315.552 193.98C311.361 196.793 308.223 198.253 307.864 194.734Z" fill="#D3B9A1" stroke="#263238" stroke-width="1.32916" stroke-linecap="round" stroke-linejoin="round"/>
<path d="M309.421 163.638C311.623 166.354 313.678 169.187 315.575 172.124C313.124 173.031 310.808 174.268 308.69 175.799C300.033 182.047 298.309 182.813 300.512 174.817C301.889 169.826 305.817 166.104 309.421 163.638Z" fill="#D3B9A1" stroke="#263238" stroke-width="1.32916" stroke-linecap="round" stroke-linejoin="round"/>
<path d="M210.587 171.322C210.587 171.322 198.075 188.893 196.29 206.763C194.506 224.632 196.59 236.542 201.954 241.018C207.318 245.495 212.671 243.699 215.652 239.522C218.634 235.345 213.868 220.754 213.868 220.754C213.868 220.754 218.933 206.763 226.68 196.936C234.428 187.109 235.912 185.613 235.912 185.613C235.912 185.613 222.502 170.425 210.587 171.322Z" stroke="#263238" stroke-width="1.32916" stroke-linecap="round" stroke-linejoin="round"/>
<path d="M201.953 241.018C200.491 237.113 199.78 232.967 199.859 228.798" stroke="#263238" stroke-width="1.32916" stroke-linecap="round" stroke-linejoin="round"/>
<path d="M209.989 242.801C209.989 242.801 207.019 237.739 206.72 229.097" stroke="#263238" stroke-width="1.32916" stroke-linecap="round" stroke-linejoin="round"/>
<path d="M209.857 172.388C207.927 175.329 206.152 178.369 204.541 181.496C207.06 182.162 209.477 183.169 211.725 184.488C220.957 189.839 222.741 190.473 219.771 182.693C217.975 177.81 213.689 174.494 209.857 172.388Z" fill="#D3B9A1" stroke="#263238" stroke-width="1.32916" stroke-linecap="round" stroke-linejoin="round"/>
<path d="M214.467 203.184C214.467 200.048 208.48 193.92 200.158 191.215C199.039 194.131 198.115 197.118 197.392 200.156C200.625 200.709 203.765 201.712 206.72 203.136C211.186 205.566 214.467 206.763 214.467 203.184Z" fill="#D3B9A1" stroke="#263238" stroke-width="1.32916" stroke-linecap="round" stroke-linejoin="round"/>
<mask id="mask7_4550_61051" style="mask-type:luminance" maskUnits="userSpaceOnUse" x="183" y="105" width="149" height="93">
<path d="M209.414 156.122C209.414 156.122 205.726 168.558 207.115 173.62C208.504 178.683 214.946 174.087 221.4 179.605C227.854 185.123 233.829 195.081 258.268 196.924C282.707 198.767 297.459 185.589 302.572 178.217C307.685 170.844 307.182 162.094 315.935 161.639C324.688 161.185 317.324 144.129 314.558 141.364C314.558 141.364 331.609 116.025 331.609 109.574C331.609 103.123 315.48 104.499 295.687 110.496C295.687 110.496 280.935 102.656 254.197 107.264C227.459 111.872 219.628 119.712 219.628 119.712C219.628 119.712 186.436 123.853 184.137 127.994C181.838 132.136 188.675 149.67 209.414 156.122Z" fill="white"/>
</mask>
<g mask="url(#mask7_4550_61051)">
<path d="M315.899 161.651C324.664 161.185 317.288 144.141 314.522 141.376C314.522 141.376 317.767 136.588 321.419 130.604C311.516 125.433 301.793 122.561 299.207 125.469C293.639 131.717 296.669 143.686 299.207 155.392C301.746 167.097 291.604 172.088 284.515 182.214C277.426 192.34 267.308 181.197 267.308 181.197C263.716 195.883 248.569 186.26 248.569 186.26C236.93 182.669 217.185 171.083 221.232 162.98C225.28 154.877 226.297 147.289 219.209 140.718C212.12 134.147 183.85 128.677 183.85 128.677C182.365 133.668 189.537 150.018 209.426 156.206C209.426 156.206 205.738 168.641 207.127 173.704C208.516 178.767 214.958 174.171 221.412 179.689C227.866 185.207 233.841 195.165 258.28 197.008C282.719 198.851 297.471 185.673 302.584 178.3C307.697 170.927 307.134 162.106 315.899 161.651Z" fill="#D3B9A1"/>
<path opacity="0.5" d="M315.899 161.651C324.664 161.185 317.288 144.141 314.522 141.376C314.522 141.376 317.767 136.588 321.419 130.604C311.516 125.433 301.793 122.561 299.207 125.469C293.639 131.717 296.669 143.686 299.207 155.392C301.746 167.097 291.604 172.088 284.515 182.214C277.426 192.34 267.308 181.197 267.308 181.197C263.716 195.883 248.569 186.26 248.569 186.26C236.93 182.669 217.185 171.083 221.232 162.98C225.28 154.877 226.297 147.289 219.209 140.718C212.12 134.147 183.85 128.677 183.85 128.677C182.365 133.668 189.537 150.018 209.426 156.206C209.426 156.206 205.738 168.641 207.127 173.704C208.516 178.767 214.958 174.171 221.412 179.689C227.866 185.207 233.841 195.165 258.28 197.008C282.719 198.851 297.471 185.673 302.584 178.3C307.697 170.927 307.134 162.106 315.899 161.651Z" fill="white"/>
<path d="M279.845 164.428C280.192 167.349 273.702 170.497 265.381 171.466C257.059 172.436 250.018 170.856 249.671 167.875C249.323 164.895 255.813 161.819 264.147 160.85C272.481 159.88 279.51 161.52 279.845 164.428Z" fill="#D3B9A1"/>
<path opacity="0.5" d="M279.845 164.428C280.192 167.349 273.702 170.497 265.381 171.466C257.059 172.436 250.018 170.856 249.671 167.875C249.323 164.895 255.813 161.819 264.147 160.85C272.481 159.88 279.51 161.52 279.845 164.428Z" fill="white"/>
</g>
<path d="M324.029 231.156C325.102 227.131 325.403 222.94 324.915 218.803" stroke="#263238" stroke-width="1.32916" stroke-linecap="round" stroke-linejoin="round"/>
<path d="M316.198 233.717C316.198 233.717 318.676 228.391 318.125 219.761" stroke="#263238" stroke-width="1.32916" stroke-linecap="round" stroke-linejoin="round"/>
<path d="M209.414 156.122C209.414 156.122 205.726 168.558 207.115 173.62C208.504 178.683 214.946 174.087 221.4 179.605C227.854 185.123 233.829 195.081 258.268 196.924C282.707 198.767 297.459 185.589 302.572 178.217C307.684 170.844 307.182 162.094 315.935 161.639C324.688 161.185 317.324 144.129 314.558 141.364C314.558 141.364 331.608 116.025 331.608 109.574C331.608 103.123 315.479 104.499 295.686 110.496C295.686 110.496 280.934 102.656 254.197 107.264C227.459 111.872 219.628 119.712 219.628 119.712C219.628 119.712 186.436 123.853 184.137 127.994C181.838 132.136 188.675 149.67 209.414 156.122Z" stroke="#263238" stroke-width="1.32916" stroke-miterlimit="10"/>
<path d="M304.751 119.257C292.777 127.3 297.004 135.343 302.356 139.808C305.625 142.537 310.894 142.202 314.498 141.436C314.498 141.436 331.549 116.097 331.549 109.646C331.561 109.586 316.665 111.154 304.751 119.257Z" fill="#D3B9A1" stroke="#263238" stroke-width="1.32916" stroke-miterlimit="10"/>
<path d="M183.838 128.593C182.353 133.584 189.525 149.934 209.414 156.122C209.414 156.122 224.597 154.638 219.532 142.429C214.802 131.035 190.89 128.198 183.838 128.593Z" fill="#D3B9A1" stroke="#263238" stroke-width="1.32916" stroke-miterlimit="10"/>
<path d="M254.125 107.288C252.556 107.563 251.048 107.851 249.599 108.138C251.994 120.227 255.933 140.359 259.453 140.359C262.974 140.359 265.668 118.288 266.817 105.924C262.561 106.103 258.322 106.559 254.125 107.288Z" fill="#D3B9A1" stroke="#263238" stroke-width="1.32916" stroke-miterlimit="10"/>
<path d="M240.391 136.768C244.055 134.613 243.504 118.419 242.917 109.634C239.136 110.573 235.413 111.736 231.769 113.117C233.099 121.34 236.475 139.066 240.391 136.768Z" fill="#D3B9A1" stroke="#263238" stroke-width="1.32916" stroke-miterlimit="10"/>
<path d="M275.846 129.323C279.594 130.64 281.701 117.175 282.886 106.809C279.101 106.193 275.274 105.868 271.439 105.84C271.32 114.35 271.787 127.899 275.846 129.323Z" fill="#D3B9A1" stroke="#263238" stroke-width="1.32916" stroke-miterlimit="10"/>
<path d="M270.829 175.93C267.332 175.012 263.616 175.47 260.447 177.211C260.308 177.291 260.19 177.403 260.102 177.537C260.014 177.671 259.958 177.824 259.94 177.983C259.921 178.142 259.94 178.304 259.995 178.454C260.05 178.605 260.139 178.741 260.256 178.851L266.614 184.835C266.733 184.947 266.877 185.029 267.034 185.074C267.191 185.119 267.357 185.126 267.517 185.094C267.677 185.062 267.828 184.993 267.956 184.892C268.084 184.791 268.186 184.661 268.254 184.512L271.511 177.331C271.569 177.195 271.598 177.048 271.594 176.9C271.59 176.753 271.555 176.607 271.49 176.474C271.426 176.342 271.333 176.224 271.219 176.13C271.105 176.036 270.971 175.968 270.829 175.93Z" fill="#D3B9A1" stroke="#263238" stroke-width="1.32916" stroke-linecap="round" stroke-linejoin="round"/>
<path fill-rule="evenodd" clip-rule="evenodd" d="M251.675 165.686C249.38 166.583 247.928 168.361 248.426 169.663C250.614 166.709 254.891 166.282 256.756 166.438C256.258 165.136 253.97 164.788 251.675 165.686Z" fill="#263238"/>
<path fill-rule="evenodd" clip-rule="evenodd" d="M271.089 164.399C271.196 163.004 273.321 162.035 275.75 162.238C278.203 162.438 280.121 163.73 280.002 165.126C276.14 162.695 272.451 163.628 271.089 164.399Z" fill="#263238"/>
<path d="M278.99 188.522C278.99 188.522 267.093 179.265 258.801 191.124" stroke="#263238" stroke-width="1.32916" stroke-linecap="round" stroke-linejoin="round"/>
<path d="M236.386 175.925L242.877 179.41" stroke="#263238" stroke-width="1.32916" stroke-miterlimit="10" stroke-linecap="round"/>
<path d="M241.346 181.788L234.996 181.4" stroke="#263238" stroke-width="1.32916" stroke-miterlimit="10" stroke-linecap="round"/>
<path d="M241.7 185.262L236.785 186.472" stroke="#263238" stroke-width="1.32916" stroke-miterlimit="10" stroke-linecap="round"/>
<path d="M286.964 174.946L292.309 171.356" stroke="#263238" stroke-width="1.32916" stroke-miterlimit="10" stroke-linecap="round"/>
<path d="M289.128 177.32L293.032 175.864" stroke="#263238" stroke-width="1.32916" stroke-miterlimit="10" stroke-linecap="round"/>
<path d="M291 179.803L296.826 179.215" stroke="#263238" stroke-width="1.32916" stroke-miterlimit="10" stroke-linecap="round"/>
<path d="M131.642 314.209C131.642 314.209 134.576 304.694 143.125 301.271C149.112 298.877 155.902 299.523 162.068 300.589C173.539 302.587 183.55 307.148 194.398 311.038C194.398 311.038 189.752 309.326 170.702 318.614C163.685 322.025 155.662 324.682 147.64 324.503C141.21 324.359 131.319 322.516 131.642 314.209Z" fill="#00BCD4"/>
<path d="M130.613 286.238C130.613 286.238 130.613 276.268 137.797 270.534C142.802 266.537 149.532 265.16 155.758 264.406C167.325 263.006 178.221 264.478 189.764 265.065C189.764 265.065 184.819 264.777 169.265 279.164C163.529 284.454 156.608 289.314 148.909 291.456C142.706 293.18 132.72 294.281 130.613 286.238Z" fill="#00BCD4"/>
<path d="M110.963 323.234C110.963 323.234 118.734 316.998 118.758 307.794C118.758 301.391 115.681 295.274 112.412 289.948C106.329 280.014 98.4025 272.402 90.7631 263.724C90.7631 263.724 94.0679 267.41 92.4634 288.536C91.8647 296.316 92.3676 304.754 95.4928 312.139C97.9474 318.075 103.3 326.585 110.963 323.234Z" fill="#00BCD4"/>
<path d="M83.423 338.531C83.423 338.531 84.5246 328.632 78.0347 322.097C73.5325 317.561 67.0067 315.406 60.9358 313.946C49.6084 311.217 38.6163 311.421 27.0853 310.667C27.0853 310.667 32.0186 310.942 45.8127 327.028C50.8896 333.013 57.1999 338.578 64.6358 341.607C70.5629 344.036 80.3577 346.275 83.423 338.531Z" fill="#00BCD4"/>
<path d="M85.1831 303.234C85.1831 303.234 95.0617 301.881 99.8034 293.994C103.108 288.512 103.599 281.666 103.539 275.418C103.42 263.784 100.522 253.167 98.4264 241.809C98.4264 241.809 99.3723 246.668 87.1349 263.963C82.6327 270.343 78.7531 277.836 77.5557 285.783C76.7055 292.162 76.933 302.204 85.1831 303.234Z" fill="#00BCD4"/>
<path d="M56.7569 285.508C56.7569 285.508 49.6563 292.498 40.5082 291.492C34.15 290.762 28.4264 286.968 23.5171 283.114C14.3689 275.932 7.72332 267.147 8.39233e-05 258.565C8.39233e-05 258.565 3.269 262.264 24.451 263.138C32.2461 263.461 40.568 264.933 47.5489 268.907C53.1527 272.043 60.9718 278.35 56.7569 285.508Z" fill="#00BCD4"/>
<path d="M64.9831 278.602C64.9831 278.602 55.0686 279.595 48.6027 273.048C44.1004 268.488 42.0169 261.953 40.616 255.86C38.0056 244.526 38.317 233.526 37.6943 222C37.6943 222 37.9099 226.931 53.8712 240.887C59.7385 246.022 65.3064 252.389 68.24 259.846C70.6229 265.843 72.7662 275.657 64.9831 278.602Z" fill="#00BCD4"/>
<path d="M100.39 375.084L117.513 332.965L137.258 284.263" stroke="#263238" stroke-width="1.32916" stroke-linecap="round" stroke-linejoin="round"/>
<path d="M96.4388 367.843L79.328 309.278L60.888 273.084" stroke="#263238" stroke-width="1.32916" stroke-linecap="round" stroke-linejoin="round"/>
<path d="M89.865 344.814L72.7421 334.94" stroke="#263238" stroke-width="1.32916" stroke-linecap="round" stroke-linejoin="round"/>
<path d="M79.3278 309.278L87.8893 290.188" stroke="#263238" stroke-width="1.32916" stroke-linecap="round" stroke-linejoin="round"/>
<path d="M68.6112 290.283L47.7285 280.971" stroke="#263238" stroke-width="1.32916" stroke-linecap="round" stroke-linejoin="round"/>
<path d="M114.22 340.864L106.976 311.911" stroke="#263238" stroke-width="1.32916" stroke-linecap="round" stroke-linejoin="round"/>
<path d="M123.823 318.853L140.551 309.937" stroke="#263238" stroke-width="1.32916" stroke-linecap="round" stroke-linejoin="round"/>
<path d="M91.6133 396.138H105.886C108.22 396.137 110.479 395.322 112.276 393.834C114.073 392.346 115.294 390.278 115.729 387.987L120.806 361.26H76.6937L81.7586 387.987C82.1961 390.279 83.4195 392.347 85.2183 393.835C87.017 395.323 89.2785 396.137 91.6133 396.138Z" fill="#263238" stroke="#263238" stroke-width="1.32916" stroke-linecap="round" stroke-linejoin="round"/>
<path d="M254.439 155.401C254.287 155.851 253.491 156.417 252.432 157.049C251.374 157.681 250.011 158.427 248.574 159.284C247.136 160.142 245.863 160.951 244.827 161.584C243.792 162.217 242.96 162.658 242.577 162.539C242.194 162.42 242.401 161.71 243.287 160.606C243.813 159.964 244.43 159.344 245.114 158.769C245.945 158.063 246.845 157.417 247.78 156.856C249.464 155.84 251.216 155.152 252.808 154.881C254.022 154.728 254.582 154.969 254.439 155.401Z" fill="#263238"/>
<path d="M280.995 156.398C280.555 156.636 279.572 156.463 278.354 156.139C277.136 155.816 275.618 155.346 273.964 154.906C272.311 154.466 270.81 154.115 269.607 153.81C268.405 153.505 267.489 153.207 267.305 152.815C267.12 152.424 267.792 152.025 269.236 151.842C270.083 151.744 270.979 151.734 271.889 151.812C273.001 151.901 274.116 152.09 275.194 152.374C277.139 152.88 278.891 153.698 280.221 154.721C281.196 155.543 281.415 156.168 280.995 156.398Z" fill="#263238"/>
</svg>
